<?xml version="1.0" encoding="utf-8"?>
<!-- Generator: Adobe Illustrator 25.0.1, SVG Export Plug-In . SVG Version: 6.00 Build 0)  -->
<svg version="1.1" id="katman_1" xmlns="http://www.w3.org/2000/svg" xmlns:xlink="http://www.w3.org/1999/xlink" x="0px" y="0px"
	 viewBox="0 0 613.28 435.89" style="enable-background:new 0 0 613.28 435.89;" xml:space="preserve">
<style type="text/css">
	.st0{fill:#003361;}
	.st1{fill:#004289;}
</style>
<g>
	<path class="st0" d="M445.91,227.05c-2.54,0-4.7,1.96-4.7,4.61c0,2.67,2.16,4.62,4.7,4.62c2.52,0,4.67-1.95,4.67-4.62
		C450.58,229,448.43,227.05,445.91,227.05L445.91,227.05z M445.91,235.52c-2.11,0-3.76-1.63-3.76-3.86c0-2.19,1.65-3.84,3.76-3.84
		c2.1,0,3.74,1.65,3.74,3.84C449.65,233.88,448.01,235.52,445.91,235.52L445.91,235.52z"/>
	<path class="st0" d="M446.65,231.97c0.79-0.09,1.38-0.5,1.38-1.45c0-1.06-0.61-1.52-1.88-1.52h-2.03v5.32h0.8v-2.31h0.93l1.41,2.31
		h0.91L446.65,231.97L446.65,231.97z M444.92,231.33v-1.65h1.1c0.56,0,1.16,0.11,1.16,0.78c0,0.82-0.6,0.86-1.28,0.86H444.92
		L444.92,231.33z"/>
	<path class="st0" d="M132.99,205.65c1.32,0.01,2.22,0.41,2.95,0.75c1.53,0.72,3.31,1.56,5.55,2.64c0,0.01,3.61-2.57,3.8-2.7
		c1.23-0.83,2.41-0.2,2.8,0.52c1.35,2.54,3.83,7.82,5.14,12.64c0.15,0.58-0.03,1.48-0.94,1.76c-0.52,0.15-1.42,0.28-2.36,0.4
		c-1.31,0.16-1.29,1.22-1.29,1.86c0,0.8,0.01,6.12,0.01,7.94c0.03,1.12-0.82,4.77-5.05,4.77c-0.28,0-9.67,0-9.63,0
		c-3.64,0.01-6.57-3.07-6.59-6.35c0-2.15,0-17.15,0.01-18.83C127.42,207.81,130.34,205.61,132.99,205.65L132.99,205.65z"/>
	<path class="st0" d="M117.76,236.22H86.44v3.48h36.74c0,0,1.33-3.08,1.33-6.48c0-0.18,0.01-23.61,0.01-23.61
		c0-1.86,0.76-5.01,4.58-5.84c0.11-0.02,0.21-0.05,0.32-0.07c10.84-2.56,22.02-0.23,28.33,2.49c1.13,0.55,1.39-0.35,1.36-0.74
		c0.13-5.3-3.9-11.35-11.32-11.72c-6.03-0.14-9.37,2.02-10.6,2.62c-0.1,0.05-0.25,0.03-0.39-0.12c-1.11-1.1-3.48-2.74-6.15-3.5
		c-0.4-0.09-0.43-0.68,0.02-0.73c5.7-0.62,10.7,0.04,12.78,0.37c0.48,0.08,0.85-0.2,0.66-0.64c-0.15-0.34-0.27-0.49-0.51-1.01
		c-0.51-1.1-1.85-2.25-3.56-2.73c-4.49-1.25-12.12-2.32-18.92-2.37c-7.66-0.05-15.73,1.48-17.77,1.94c-0.49,0.1-1.17,0.28-1.3,0.3
		c-0.56,0.11-0.69,0.65-0.44,0.9c0.15,0.16,0.57,0.52,0.77,0.77c0.25,0.32,0.37,0.77-0.11,1.24L88.12,203.5h9.69h0.11
		c0.63-0.02,1.23,0.56,1.23,1.28c0.01,0.65-0.52,1.27-1.18,1.27h-0.08H85.3l-3.85,3.5h16.48l0.09-0.01
		c0.65,0.01,1.15,0.67,1.14,1.28c-0.01,0.56-0.48,1.25-1.14,1.25l-0.1,0.01H78.62l-3.86,3.48h33.28l0.11,0
		c0.66,0,1.17,0.68,1.17,1.27c0.01,0.68-0.47,1.29-1.14,1.29h-0.09H74.76v3.48h33.26l0.1,0.01c0.76,0.01,1.21,0.69,1.21,1.32
		c-0.01,0.59-0.56,1.21-1.22,1.21h-0.09H74.76v3.5h43.42h0.11c0.72,0.02,1.19,0.64,1.16,1.32c-0.02,0.59-0.51,1.21-1.16,1.21h-0.1
		H86.46v3.5h31.3l0.67-0.01c0.58,0,1.09,0.73,1.09,1.32c0,0.59-0.52,1.23-1.11,1.23H117.76L117.76,236.22z"/>
	<path class="st0" d="M98.14,248.24l0,3.56c0,0,4.71,0.01,7.39,0c6.62-0.05,10.95-3.56,10.95-3.56H98.14L98.14,248.24z"/>
	<path class="st0" d="M98.14,242.25l0,3.49h21.25c0.98-1,2.24-2.82,2.57-3.48L98.14,242.25L98.14,242.25z"/>
	<path class="st0" d="M440.91,220.72c-0.01-0.07-0.01-0.12-0.02-0.19c-0.12-2.7-1.02-5.12-2.28-7c-2.64-4.13-7.26-6.36-12.81-6.29
		c-5.56-0.07-10.18,2.15-12.82,6.29c-1.26,1.88-2.16,4.3-2.28,7c-0.01,0.07-0.02,0.13-0.02,0.19c-0.75,9.07,4.53,15.34,13.54,16.06
		c0.54,0.04,1.06,0.07,1.58,0.06c0.52,0.01,1.05-0.01,1.59-0.06C436.39,236.06,441.67,229.79,440.91,220.72L440.91,220.72z
		 M426.49,232.53c-0.24,0.01-0.48,0.03-0.7,0.04c-0.22-0.01-0.46-0.01-0.7-0.04c-1.32-0.12-2.36-0.59-3.31-1.32
		c-0.27-0.23-0.53-0.48-0.8-0.77c-1.39-1.56-2.13-4.23-2.31-6.33c-0.41-4.91,0.57-12.07,6.59-12.55c0.15-0.01,0.3-0.01,0.46-0.01
		c0.02,0,0.04-0.01,0.07-0.01s0.04,0.01,0.07,0.01c0.14,0,0.3,0,0.45,0.01c6.03,0.48,7.01,7.65,6.61,12.55
		c-0.18,2.1-0.85,4.71-2.32,6.33c-0.26,0.3-0.53,0.55-0.79,0.77C428.85,231.94,427.73,232.43,426.49,232.53L426.49,232.53z"/>
	<path class="st0" d="M381.02,213.98c0-2.24,0.22-6.19,0.22-6.19h0h-7.38h-0.01c0,0,0.22,3.94,0.22,6.19l-0.02,16.16
		c0,2.25-0.21,6.06-0.21,6.06h0.02h7.36h0.01c0,0-0.2-3.81-0.2-6.06L381.02,213.98L381.02,213.98z"/>
	<path class="st0" d="M337.88,231.8c-1.55,0-3.57,0-5.14,0.01c-0.07-2.85-0.1-5.61-0.11-8.11l-0.01-0.39h0.01c0-0.03,0-0.05,0-0.07
		h8.53v-4.02h-8.52c0.02-4.32,0.1-7.17,0.1-7.17l10.58,0v-4.26c-7.39,0.03-18.09,0-18.09,0s0.16,3.92,0.16,6.16v16.13
		c0,2.05-0.12,5.54-0.15,6.11h18.78l0.02-4.5C344.04,231.69,340.34,231.8,337.88,231.8L337.88,231.8z"/>
	<path class="st0" d="M214.74,231.8c-1.54,0-3.58,0-5.14,0.01c-0.07-2.85-0.1-5.61-0.11-8.11l-0.01-0.39h0.01c0-0.03,0-0.05,0-0.07
		h8.53v-4.02h-8.52c0.02-4.32,0.1-7.17,0.1-7.17l10.59,0v-4.26c-7.4,0.03-18.09,0-18.09,0s0.16,3.92,0.16,6.16v16.13
		c0,2.05-0.13,5.54-0.15,6.11h18.78l0.02-4.5C220.91,231.69,217.21,231.8,214.74,231.8L214.74,231.8z"/>
	<path class="st0" d="M362.05,220.92l8.15-13.13h-5.65l-0.04,0.13c-1.71,2.95-3.84,6.53-4.69,7.84l-0.33,0.52l-4.73-8.49h-8.49
		l8.19,14.7l-8.53,13.7h5.62c3.63-6.22,5.51-9.07,5.51-9.07l5.06,9.07h8.46L362.05,220.92L362.05,220.92z"/>
	<path class="st0" d="M404.06,232.34c-6.57,0-10.11-4.83-9.94-10.78c0.16-5.18,2.52-9.58,8.17-9.96c2.17-0.14,3.93,0.23,6.96,1.04
		l-0.31-4.44c0,0-2.57-0.82-6.25-0.96c-4.68-0.18-8.92,0.72-12.3,3.84c-3.01,2.76-4.8,6.85-4.8,10.82c0,4.39,1.81,8.44,5.2,11.25
		c3.53,2.98,7.31,3.66,11.81,3.66c2.95,0,4.69-0.2,7.55-0.98l-0.42-4.35C409.1,231.68,407.03,232.34,404.06,232.34L404.06,232.34z"
		/>
	<path class="st0" d="M309.18,203.53h8.23l0.23,1.9c1.84,18.97,2.97,30.78,2.97,30.78h-8.57l-0.85-11.76l-0.79-10.51l-7.26,22.25
		c-1.91,0-4.58,0-4.58,0s-2.3-7.91-2.72-9.01l-4.16-13.35c0,0-0.64,7.43-0.89,10.6c-0.5,6.37-0.95,11.77-0.95,11.77h-6.39
		c0,0,2.62-26.57,2.82-28.19c0.2-1.66,0.51-4.49,0.51-4.49h8.4l6.96,19.13L309.18,203.53L309.18,203.53z"/>
	<path class="st0" d="M280.01,220.76c-0.01-0.07-0.02-0.13-0.02-0.19c-0.12-2.71-1.01-5.11-2.28-6.98
		c-2.62-4.12-7.22-6.33-12.75-6.25c-5.54-0.07-10.14,2.14-12.77,6.25c-1.25,1.87-2.15,4.27-2.27,6.98c0,0.05-0.02,0.12-0.02,0.19
		c-0.76,9.03,4.51,15.27,13.47,15.99c0.53,0.04,1.06,0.05,1.58,0.05c0.51,0,1.04-0.01,1.57-0.05
		C275.5,236.03,280.77,229.79,280.01,220.76L280.01,220.76z M265.65,232.51c-0.23,0.03-0.46,0.03-0.69,0.03c-0.23,0-0.46,0-0.7-0.03
		c-1.32-0.12-2.35-0.58-3.3-1.32c-0.27-0.21-0.53-0.48-0.79-0.76c-1.38-1.55-2.12-4.21-2.3-6.31c-0.41-4.88,0.57-12.01,6.57-12.49
		c0.15-0.01,0.3-0.02,0.45-0.02c0.02,0,0.05-0.01,0.07,0c0.02-0.01,0.04,0,0.06,0c0.15,0,0.3,0.01,0.45,0.02
		c5.99,0.48,6.98,7.61,6.56,12.49c-0.17,2.1-0.85,4.7-2.3,6.31c-0.26,0.28-0.52,0.55-0.79,0.76
		C268,231.93,266.88,232.41,265.65,232.51L265.65,232.51z"/>
	<path class="st0" d="M200.33,236.19c-0.25-0.59-1.77-4.19-2.89-7.09l-9.6-25.57h-7.48c0,0-2.13,6-2.43,6.99l-7.01,19.82
		c-0.91,2.53-2.19,5.86-2.19,5.86h6.1c0,0,1.73-5.51,2.08-6.51l0.94-2.75h10.58l1.44,4.19c0.31,0.79,1.55,5,1.58,5.06H200.33
		L200.33,236.19z M179.39,222.29l3.56-10.58l0.21-0.62l3.72,11.2H179.39L179.39,222.29z"/>
	<path class="st0" d="M250.28,236.19c-1.77-2.54-2.42-3.58-3.78-5.44l-5.09-7.91c2.45-1.21,4.75-3.24,5.1-7.48
		c0.22-2.66-1.2-4.85-2.04-5.6c-1.23-1.09-2.42-1.54-4.11-1.74c-1.36-0.18-2.34-0.19-3.16-0.24H225.2c0,0,0.14,3.92,0.14,6.17v16.06
		c0,2.25-0.14,6.18-0.14,6.18h7.38c0,0-0.22-3.92-0.22-6.18l0.06-5.15c0,0,1.61,0,2.74,0.01l4.67,8.55
		c0.63,1.09,1.53,2.45,1.75,2.76H250.28L250.28,236.19z M237.24,220.34c-1.1,0.57-3.59,0.41-4.82,0.34l0.09-8.12l0.69-0.04
		c2.26-0.18,3.92,0.12,4.59,0.43c1.02,0.45,1.61,1.4,1.66,3C239.54,218.34,238.63,219.62,237.24,220.34L237.24,220.34z"/>
	<polygon class="st1" points="520.86,182.33 520.41,182.12 520.53,181.88 521.72,182.42 521.61,182.66 521.17,182.47 520.58,183.77 
		520.27,183.63 520.86,182.33 	"/>
	<polygon class="st1" points="521.96,182.52 522.44,182.76 522.24,184.09 522.25,184.09 523.17,183.11 523.66,183.35 522.92,184.88 
		522.63,184.73 523.24,183.48 523.24,183.48 522.21,184.53 521.92,184.39 522.12,182.93 522.12,182.93 521.5,184.18 521.21,184.04 
		521.96,182.52 	"/>
	<path class="st1" d="M525.57,195.71l-0.03,0.04c5.8,5.83,9.62,13.69,10.23,22.53c1.36,19.54-13.36,36.49-32.9,37.85
		c-9.18,0.64-17.79-2.27-24.48-7.57l-0.04,0.04c6.94,6.47,16.44,10.16,26.66,9.45c19.54-1.37,34.27-18.32,32.9-37.85
		C537.22,210.32,532.55,201.67,525.57,195.71L525.57,195.71z"/>
	<path class="st1" d="M462.71,236.03c-1.13,0.63-1.38,1.58-0.8,3.04c0.53,1.33,1.37,1.91,2.26,1.55c0.71-0.29,0.84-0.9,0.54-2.51
		l-0.13-0.62c-0.29-1.58-0.34-2.26-0.15-2.93c0.18-0.76,0.62-1.26,1.28-1.52c1.61-0.64,3.12,0.35,4.03,2.61
		c0.97,2.44,0.45,4.28-1.45,5.07l-0.48-1.19c1.32-0.58,1.66-1.81,0.95-3.58c-0.58-1.45-1.5-2.09-2.47-1.7
		c-0.78,0.31-0.96,1.04-0.67,2.68l0.11,0.68l0.11,0.61c0.21,1.22,0.23,1.65,0.11,2.17c-0.16,0.65-0.57,1.12-1.24,1.39
		c-1.5,0.6-2.95-0.28-3.76-2.32c-0.88-2.2-0.41-3.84,1.28-4.6L462.71,236.03L462.71,236.03z"/>
	<polygon class="st1" points="461.71,223.23 467.09,218.7 467.12,220.37 462.57,224.15 464.04,225.78 467.24,225.7 467.27,227.02 
		458.13,227.22 458.1,225.91 461.7,225.83 462.19,225.83 462.66,225.82 462.35,225.5 462.04,225.17 457.99,220.8 457.95,219.07 
		461.71,223.23 	"/>
	<path class="st1" d="M465.76,209.07l3.53,1.24l-0.44,1.24l-3.52-1.24l-6.32,1.91l0.53-1.51l3.92-1.09l0.48-0.14
		c0.2-0.06,0.32-0.08,0.67-0.15c-0.31-0.36-0.38-0.45-0.7-0.9l-2.42-3.27l0.5-1.44L465.76,209.07L465.76,209.07z"/>
	<polygon class="st1" points="471.95,192.28 470.01,194.64 475.78,199.37 474.4,201.06 468.62,196.34 466.7,198.69 465.39,197.62 
		470.64,191.21 471.95,192.28 	"/>
	<polygon class="st1" points="484.29,183.61 479.67,186.31 480.66,187.99 484.9,185.52 485.69,186.87 481.45,189.34 482.59,191.29 
		487.29,188.54 488.14,190 481.55,193.85 476.93,185.96 483.44,182.15 484.29,183.61 	"/>
	<path class="st1" d="M501.99,187.16l-2.39,0.15l-1.18-1.98l-3.69,0.59l-0.52,2.25l-2.28,0.59l2.41-10l2.25-0.36L501.99,187.16
		L501.99,187.16z M496.76,182.45c-0.5-0.84-0.7-1.21-0.98-1.86c-0.08,0.65-0.17,1.14-0.39,2.08l-0.38,1.74l2.66-0.42L496.76,182.45
		L496.76,182.45z"/>
	<path class="st1" d="M516.68,190.09l-1.93-0.73l0.73-2.72c0.08-0.32,0.2-0.76,0.36-1.31c0.15-0.57,0.28-1.02,0.38-1.35
		c0.12-0.37,0.23-0.75,0.35-1.14l0.22-0.65c-0.54,0.92-0.75,1.25-1.25,2c-0.21,0.33-0.41,0.6-0.56,0.83l-2.59,3.64l-1.67-0.44
		l-0.52-4.37c-0.04-0.22-0.06-0.54-0.09-0.97c-0.03-0.58-0.06-1.01-0.07-1.31c-0.01-0.24-0.01-0.61-0.01-1.11l-0.23,1.1
		c-0.27,1.21-0.39,1.73-0.76,3.16l-0.76,2.95l-2.02-0.32l2.29-8.95l3.08,0.59l0.43,4.23c0.11,0.99,0.13,1.82,0.09,3
		c0.35-0.67,0.47-0.9,0.87-1.52c0.27-0.42,0.5-0.76,0.7-1.08l2.41-3.46l2.92,0.99L516.68,190.09L516.68,190.09z"/>
	<path class="st1" d="M499.2,207.71c-1.11,0.97-3.31,3.08-5.43,5.12l-2.4,2.3c-1.97-0.36-3.91-0.52-5.9-0.52
		c-4.46,0-8.54,1.23-10.4,3.12c-0.71,0.73-1.06,1.52-1.04,2.35c0.04,2.15,2.51,3.24,3.27,3.52c3.96,1.48,7.28,1.05,10.77-1.39
		c1.93-1.35,4.25-3.51,6.05-5.25c1.41,0.33,3.01,0.74,4.72,1.24l1.59,0.47c-2.05,2.01-4.16,4.15-6.11,5.87l-0.15,0.13
		c-2.72,2.4-4.68,4.13-7.52,4.76c-2,0.44-3.42,0.02-3.88-0.27c-0.04,0.01-0.11,0.09-0.11,0.09c1.65,1.35,3.2,2.12,5.87,1.89
		c2.55-0.22,5.49-1.83,8.5-4.64l4.06-3.99l2.84-2.83c0,0.02,5.75,1.69,5.75,1.69c0.04,0.01,0.1,0.03,0.1,0.03
		c-0.06,0-3.56,3.46-3.56,3.46l-3.06,3.04c-3.13,3.04-4.84,4.62-6.66,5.92c-3.03,2.15-5.62,3.26-7.91,3.42
		c-1.18,0.08-2.88,0-4.31-0.84c-0.07-0.01-0.15,0.06-0.15,0.06c1.55,1.33,3.44,2.91,6.7,2.82c3.69-0.1,6.96-1.88,12.05-6.55
		c2.32-2.13,4.63-4.51,6.66-6.61l3.78-3.83c2.49,0.56,4.72,0.78,7.18,0.73c3.58-0.07,6.64-1.79,6.68-3.75
		c0.03-1.45-1.16-2.22-1.87-2.68c-0.59-0.39-2.19-1.27-4.41-1.27c-2.69,0-5.49,1.19-8.33,3.52l-1.9,1.67
		c0.02-0.01-0.69-0.19-0.69-0.19l-5.26-1.47c1.55-1.45,2.87-2.69,4.07-3.75c2.88-2.56,6.06-3.61,7.92-3.73
		c1.35-0.09,3.72,0.03,4.7,0.72c0.04-0.01,0.11-0.1,0.11-0.1c-2.59-2.22-4.83-2.51-6.68-2.51c-1.82,0-4.75,0.58-8.32,3.35
		c-1.46,1.13-3.36,3.02-5.34,5.02c0-0.01-2.66-0.82-2.66-0.82l-0.64-0.2c0,0-2.79-0.85-2.8-0.85c0.06,0,1.59-1.5,1.59-1.5
		c1.89-1.85,3.67-3.59,5.06-4.76c5.05-4.25,8.23-4.8,10.44-4.81c2.42-0.01,4.34,0.49,5.72,1.48c0.04-0.01,0.1-0.1,0.1-0.1
		c-2.84-2.57-4.87-3.38-8.39-3.41C506.5,202.83,502.81,204.55,499.2,207.71L499.2,207.71z M479.37,222.84
		c-1.64-0.11-2.44-0.78-2.44-2.03c0-0.17,0.11-4.17,9.28-4.63c1.05-0.05,2.22-0.09,3.99,0.12c-0.07,0-1.04,0.89-1.04,0.89
		l-0.57,0.52C486.37,219.71,482.67,223.07,479.37,222.84L479.37,222.84z M516.47,219.59c2.64-1.78,4.84-2.73,6.2-2.68
		c0.81,0.03,1.77,0.27,1.77,1.27c0,1.02-0.98,1.88-2.89,2.57c-1.68,0.6-4.25,0.75-7.05,0.43
		C515.28,220.48,515.92,219.96,516.47,219.59L516.47,219.59z"/>
	<polygon class="st1" points="498.28,221.57 498.28,224.29 498.28,221.57 	"/>
</g>
</svg>
