<?xml version="1.0" encoding="utf-8"?>
<!-- Generator: Adobe Illustrator 25.4.1, SVG Export Plug-In . SVG Version: 6.00 Build 0)  -->
<svg version="1.1"
	 id="svg2" xmlns:cc="http://creativecommons.org/ns#" xmlns:dc="http://purl.org/dc/elements/1.1/" xmlns:rdf="http://www.w3.org/1999/02/22-rdf-syntax-ns#" xmlns:svg="http://www.w3.org/2000/svg"
	 xmlns="http://www.w3.org/2000/svg" xmlns:xlink="http://www.w3.org/1999/xlink" x="0px" y="0px" viewBox="0 0 158.9 39.6"
	 style="enable-background:new 0 0 158.9 39.6;" xml:space="preserve">
<style type="text/css">
	.st0{display:none;fill:#FFFFFF;}
	.st1{fill:#2475C4;}
	.st2{fill:#FFFFFF;}
	.st3{fill:#F4CE1C;}
</style>
<g id="g10" transform="matrix(1.3333333,0,0,-1.3333333,0,1056)">
	<path id="path12" class="st0" d="M120.3,715.8h-122v122h122V715.8z"/>
	<path id="path14" class="st1" d="M115.1,762.3H0v26.8h115.1V762.3z"/>
	<path id="path16" class="st2" d="M113.8,763.5H89.2V788h24.5V763.5z"/>
	<path id="path18" class="st3" d="M110.9,763.8H89.8v1.1h21.1V763.8z"/>
	<path id="path20" class="st3" d="M110.4,765.3H89.8v1.1h20.6V765.3z"/>
	<path id="path22" class="st3" d="M110.4,766.7H89.8v1.1h20.6V766.7z"/>
	<path id="path24" class="st3" d="M110.4,768.1H89.8v1.1h20.6V768.1z"/>
	<path id="path26" class="st3" d="M110.4,769.6H89.8v1.1h20.6V769.6z"/>
	<path id="path28" class="st3" d="M110.4,771H89.8v1.1h20.6V771z"/>
	<path id="path30" class="st3" d="M110.4,772.4H89.8v1.1h20.6V772.4z"/>
	<path id="path32" class="st3" d="M110.4,773.8H89.8v1.1h20.6V773.8z"/>
	<path id="path34" class="st3" d="M110.4,775.3H89.8v1.1h20.6V775.3z"/>
	<path id="path36" class="st3" d="M110.4,776.7H89.8v1.1h20.6V776.7z"/>
	<path id="path38" class="st3" d="M110.4,778.1H89.8v1.1h20.6V778.1z"/>
	<path id="path40" class="st3" d="M110.4,779.6H89.8v1.1h20.6V779.6z"/>
	<path id="path42" class="st3" d="M110.4,781H89.8v1.1h20.6V781z"/>
	<path id="path44" class="st3" d="M110.4,782.4H89.8v1.1h20.6V782.4z"/>
	<path id="path46" class="st1" d="M112.6,766.7H92.4v20.2h20.2V766.7z"/>
	<path id="path48" class="st1" d="M101.8,791.3c-2.8-0.1-4.7-4.6-9-21.2c0,0-0.1-0.2-0.1-0.5c-0.1,0-0.3-0.1-0.3-0.1V767
		c0,0,11.7,3.4,15.3,4.6c0.4-1.5,1.3-4.9,1.3-4.9l2.8,0c0,0-1,4.1-1.5,5.8c6,2.1,8.3,3.7,8.3,5.5c0,0,0,0.1,0,0.1
		c-0.1,2-3.1,3.4-11.4,5.2C105.3,789,103.7,791.3,101.8,791.3 M99,784.7c1.7,4.5,2.6,4.7,2.8,4.7c0.2,0,1.4-0.3,3.6-6.9
		c-1.6,0.4-3.5,0.9-5.8,1.4l-0.7,0.2l-0.3-0.7c0,0,0-0.1,0-0.1C98.7,783.8,98.9,784.2,99,784.7 M100,781.9c1.8-0.4,3.4-0.8,4.8-1.2
		c0.7-1.6,1.4-3.8,2.1-6.5c-2.5-1-5.9-2.1-10.9-3.6C97.7,776.2,98.9,779.7,100,781.9 M106.5,781.5c3.6-0.8,6.2-1.5,7.9-2.2
		c2.2-0.9,2.3-1.4,2.3-1.4c0,0,0,0,0,0c0-0.2-0.3-1.3-7.7-3.9C108,777.2,107.2,779.7,106.5,781.5L106.5,781.5z"/>
	<path id="path50" class="st1" d="M106,780.8c0.6-1.9,1.2-4.1,2-7.1l0.3-1.1l1,0.4c3.8,1.6,5.3,2.9,5.2,4.4
		c-0.1,1.7-2.1,2.9-7.3,4.4l-1.7,0.5L106,780.8 M108.3,779.7c4-1.3,4.2-2.1,4.2-2.2c0,0,0,0,0,0c0-0.1-0.1-0.7-3-2.1
		C109.1,777,108.7,778.4,108.3,779.7L108.3,779.7z"/>
	<path id="path52" class="st2" d="M109.2,773.1c0.7-2.8,1.5-6,2.4-9.6l-0.8,0c-0.9,3.6-1.7,6.7-2.4,9.3c-4.6-1.6-10.9-3.4-19-5.7
		l0,0.5c8.5,2.5,14.8,4.4,18.8,6.1c-0.9,3.3-1.8,5.9-2.6,7.8c-1.7,0.5-3.7,1-6,1.5c-1.4-2.6-2.8-7.1-4.6-13.2h-1.1
		c5.5,21.1,8,26.9,12.7,12.7C120.2,779.5,121.4,777.4,109.2,773.1 M108.9,774c6.8,2.9,6,4.8-2,7.1
		C107.5,779.1,108.2,776.7,108.9,774 M99.9,783.8c1.8-0.3,3.4-0.7,5-1C103.1,786.5,101.6,786.7,99.9,783.8z"/>
	<path id="path54" class="st2" d="M1.9,770.6c4.9,18.5,5.5,19.5,11.4-4.3h-0.6c-5,19.6-5.6,18.8-10.1,4.3H1.9z"/>
	<path id="path56" class="st2" d="M12.2,772.1l3.3,3.9h0l-3,3.6h1.7l2.2-2.5h0l2.1,2.5H20l-2.9-3.4h0l3.4-4h-1.8l-2.5,3h0l-2.4-3
		H12.2L12.2,772.1z"/>
	<path id="path58" class="st2" d="M26.3,772.1h-3.6v6.4h-2.3v1H24v-6.4h2.3V772.1 M24.2,782.2c0-0.2-0.1-0.4-0.3-0.6
		c-0.2-0.2-0.4-0.2-0.7-0.2c-0.2,0-0.5,0.1-0.6,0.2c-0.2,0.2-0.3,0.4-0.3,0.6c0,0.2,0.1,0.4,0.3,0.6c0.2,0.2,0.4,0.2,0.7,0.2
		c0.3,0,0.5-0.1,0.6-0.3C24.1,782.6,24.2,782.4,24.2,782.2z"/>
	<path id="path60" class="st2" d="M26.7,773.8c1-0.6,2.1-0.9,3.4-0.9c0.6,0,1.1,0.1,1.4,0.3c0.3,0.2,0.5,0.5,0.5,0.8
		c0,0.3-0.1,0.5-0.4,0.6c-0.3,0.2-0.7,0.3-1.1,0.5l-1.6,0.6c-0.6,0.2-1.1,0.5-1.4,0.8c-0.3,0.3-0.5,0.7-0.5,1.1
		c0,0.6,0.3,1.1,0.8,1.6c0.5,0.4,1.4,0.6,2.6,0.6c1.1,0,1.9-0.1,2.5-0.4v-1.1c-1,0.3-1.9,0.5-2.5,0.5c-0.7,0-1.2-0.1-1.5-0.3
		c-0.3-0.2-0.4-0.4-0.4-0.7c0-0.3,0.1-0.5,0.4-0.6c0.3-0.2,0.6-0.3,1.1-0.5l1.4-0.5c0.8-0.3,1.3-0.6,1.7-0.9
		c0.3-0.3,0.5-0.7,0.5-1.2c0-0.7-0.3-1.3-0.9-1.7c-0.6-0.4-1.4-0.6-2.6-0.6c-1.1,0-2.2,0.2-3.3,0.6V773.8z"/>
	<path id="path62" class="st2" d="M35.7,772.1l3.5,10.3h1.5l3.5-10.3h-1.6l-0.8,2.3v0h-4.1v0l-0.8-2.3H35.7 M38.3,775.4L38.3,775.4
		l3.4,0v0l-1.7,5h0L38.3,775.4L38.3,775.4z"/>
	<path id="path64" class="st2" d="M49.1,772.1h-3.6v6.4h-2.3v1h3.6v-6.4h2.3V772.1 M47.1,782.2c0-0.2-0.1-0.4-0.3-0.6
		c-0.2-0.2-0.4-0.2-0.7-0.2c-0.2,0-0.5,0.1-0.6,0.2c-0.2,0.2-0.3,0.4-0.3,0.6c0,0.2,0.1,0.4,0.3,0.6c0.2,0.2,0.4,0.2,0.7,0.2
		s0.5-0.1,0.6-0.3C47,782.6,47.1,782.4,47.1,782.2z"/>
	<path id="path66" class="st2" d="M49.9,779.6h1.3V778c0.8,1.2,2,1.8,3.3,1.8c0.6,0,1.1-0.1,1.5-0.2v-2.7h-1.3v1.7
		c-0.2,0-0.4,0.1-0.6,0.1c-1,0-2-0.7-2.9-2.2v-4.4h-1.3V779.6L49.9,779.6z"/>
	<path id="path68" class="st2" d="M56.1,779.6h1.3l0.9-5.5l0,0l1.6,5.5h1.2l1.7-5.5h0l0.9,5.5h1l-1.3-7.5h-1.3l-1.8,5.8h0l-1.7-5.8
		h-1.3L56.1,779.6L56.1,779.6z"/>
	<path id="path70" class="st2" d="M72,772.1h-1.4c-0.1,0.4-0.2,0.9-0.3,1.7c-0.3-0.4-0.7-0.9-1.3-1.3c-0.6-0.4-1.2-0.6-1.9-0.6
		c-0.7,0-1.4,0.3-1.9,0.9c-0.5,0.6-0.8,1.4-0.8,2.4c0,1.2,0.4,2.3,1.1,3.2c0.8,0.9,1.8,1.3,3.1,1.3c0.3,0,0.6,0,1-0.1
		c0.4,0,0.6-0.1,0.6-0.1h1.3V774c0-0.3,0-0.7,0.1-1.1C71.8,772.5,71.9,772.2,72,772.1 M70.3,775.2v3.2c-0.5,0.1-1,0.2-1.3,0.2
		c-0.8,0-1.5-0.3-2.1-0.9c-0.6-0.6-0.8-1.4-0.8-2.5c0-0.7,0.2-1.2,0.4-1.6c0.3-0.4,0.7-0.6,1.1-0.6c0.5,0,1,0.2,1.5,0.6
		C69.5,774.1,69.9,774.6,70.3,775.2z"/>
	<path id="path72" class="st2" d="M71.4,769.1l0,1.1c0.4-0.1,0.7-0.2,1-0.2c0.7,0,1.2,0.2,1.7,0.6c0.4,0.4,0.8,1,1.2,1.8h0l-3.8,7.1
		H73l3-5.6h0l2.6,5.6h1.4l-3.4-7.3c-0.5-1.1-1.1-2-1.7-2.5c-0.6-0.5-1.4-0.8-2.5-0.8C72,769,71.6,769,71.4,769.1L71.4,769.1z"/>
	<path id="path74" class="st2" d="M79.7,773.8c1-0.6,2.1-0.9,3.4-0.9c0.6,0,1.1,0.1,1.4,0.3c0.3,0.2,0.5,0.5,0.5,0.8
		c0,0.3-0.1,0.5-0.4,0.6c-0.3,0.2-0.7,0.3-1.1,0.5l-1.6,0.6c-0.6,0.2-1.1,0.5-1.4,0.8c-0.3,0.3-0.5,0.7-0.5,1.1
		c0,0.6,0.3,1.1,0.8,1.6c0.5,0.4,1.4,0.6,2.6,0.6c1.1,0,1.9-0.1,2.5-0.4v-1.1c-1,0.3-1.9,0.5-2.5,0.5c-0.7,0-1.2-0.1-1.5-0.3
		c-0.3-0.2-0.5-0.4-0.5-0.7c0-0.3,0.1-0.5,0.4-0.6c0.3-0.2,0.6-0.3,1.1-0.5l1.4-0.5c0.8-0.3,1.3-0.6,1.7-0.9
		c0.3-0.3,0.5-0.7,0.5-1.2c0-0.7-0.3-1.3-0.9-1.7c-0.6-0.4-1.4-0.6-2.6-0.6c-1.1,0-2.2,0.2-3.3,0.6V773.8z"/>
	<path id="path76" class="st2" d="M86.9,779.3c-0.3,0-0.6,0.1-0.8,0.3c-0.2,0.2-0.3,0.4-0.3,0.7c0,0.3,0.1,0.5,0.3,0.7
		c0.2,0.2,0.4,0.3,0.7,0.3c0.3,0,0.6-0.1,0.7-0.3c0.2-0.2,0.3-0.4,0.3-0.7c0-0.3-0.1-0.5-0.3-0.7C87.4,779.4,87.2,779.3,86.9,779.3
		 M86.1,780.3c0-0.2,0.1-0.4,0.2-0.6c0.1-0.2,0.3-0.2,0.6-0.2c0.2,0,0.4,0.1,0.6,0.2c0.1,0.2,0.2,0.4,0.2,0.6c0,0.2-0.1,0.4-0.2,0.6
		c-0.1,0.2-0.3,0.3-0.6,0.3c-0.3,0-0.4-0.1-0.6-0.2C86.1,780.7,86.1,780.5,86.1,780.3 M86.4,779.8v1.1h0.4c0.2,0,0.3,0,0.4-0.1
		c0.1,0,0.1-0.1,0.1-0.2c0-0.1-0.1-0.3-0.3-0.3v0l0.4-0.5h-0.3l-0.3,0.4h-0.2v-0.4L86.4,779.8 M86.7,780.7v-0.4h0.2
		c0.1,0.1,0.2,0.1,0.2,0.2C87.1,780.6,87,780.7,86.7,780.7L86.7,780.7z"/>
	<path id="path78" class="st2" d="M26.5,768.2l-0.9,0.2c0,0.3,0.1,0.5,0.1,0.7c0.1,0.2,0.2,0.3,0.3,0.4c0.1,0.1,0.2,0.2,0.4,0.2
		c0.1,0,0.3,0.1,0.5,0.1c0.3,0,0.5,0,0.7-0.1c0.2-0.1,0.3-0.2,0.4-0.4c0.1-0.1,0.1-0.3,0.2-0.6c0-0.2,0.1-0.5,0.1-0.7v-2
		c0-0.2,0-0.4,0-0.5c0-0.1,0-0.3,0.1-0.5h-0.9c0,0.1-0.1,0.2-0.1,0.3c0,0.1,0,0.2,0,0.3c-0.1-0.2-0.2-0.4-0.4-0.5
		c-0.2-0.1-0.4-0.2-0.6-0.2c-0.3,0-0.5,0.1-0.7,0.4c-0.1,0.3-0.2,0.6-0.2,1c0,0.4,0.1,0.6,0.2,0.9c0.1,0.2,0.3,0.4,0.6,0.5
		c0.3,0.1,0.6,0.2,0.7,0.3c0.1,0.1,0.2,0.1,0.3,0.2c0,0.2,0,0.4-0.1,0.5c0,0.1-0.1,0.1-0.2,0.1c-0.2,0-0.3,0-0.3-0.1
		C26.6,768.6,26.6,768.4,26.5,768.2 M27.3,767.3c-0.1-0.1-0.3-0.2-0.4-0.2c-0.2-0.1-0.3-0.2-0.3-0.3c-0.1-0.1-0.1-0.2-0.1-0.3
		c0-0.1,0-0.3,0.1-0.3c0-0.1,0.1-0.1,0.2-0.1c0.1,0,0.2,0,0.3,0.1c0.1,0.1,0.1,0.2,0.2,0.4c0,0.1,0.1,0.3,0.1,0.5V767.3z"/>
	<path id="path80" class="st2" d="M28.6,769.7h1.1l0.4-1.3l0.4,1.3h1l-0.8-2.2l0.9-2.4h-1.1l-0.4,1.5l-0.5-1.5h-1l0.9,2.4
		L28.6,769.7z"/>
	<path id="path82" class="st2" d="M32,770.9h0.9v-0.6H32V770.9 M32,769.7h0.9v-4.6H32V769.7z"/>
	<path id="path84" class="st2" d="M33.3,766.4l0.9,0.2c0-0.2,0.1-0.4,0.2-0.4c0.1-0.1,0.2-0.1,0.3-0.1c0.1,0,0.2,0,0.3,0.2
		c0.1,0.1,0.1,0.2,0.1,0.3c0,0.1,0,0.2-0.1,0.3c-0.1,0-0.2,0.1-0.4,0.2c-0.3,0.1-0.5,0.2-0.7,0.3c-0.1,0.1-0.2,0.2-0.3,0.5
		c-0.1,0.2-0.1,0.5-0.1,0.7c0,0.3,0,0.6,0.1,0.8c0.1,0.2,0.2,0.4,0.4,0.5c0.2,0.1,0.4,0.2,0.7,0.2c0.3,0,0.5,0,0.6-0.1
		c0.1-0.1,0.3-0.2,0.3-0.4c0.1-0.2,0.2-0.4,0.2-0.7l-0.9-0.2c0,0.1-0.1,0.3-0.1,0.3c-0.1,0.1-0.2,0.1-0.3,0.1c-0.1,0-0.2,0-0.2-0.1
		c0-0.1-0.1-0.2-0.1-0.3c0-0.1,0-0.2,0.1-0.3c0.1-0.1,0.2-0.1,0.4-0.2c0.3-0.1,0.5-0.2,0.7-0.3c0.2-0.1,0.3-0.3,0.3-0.5
		c0.1-0.2,0.1-0.5,0.1-0.7c0-0.3,0-0.5-0.1-0.8c-0.1-0.3-0.2-0.5-0.4-0.6c-0.2-0.1-0.4-0.2-0.7-0.2c-0.4,0-0.8,0.1-0.9,0.4
		C33.5,765.6,33.4,765.9,33.3,766.4L33.3,766.4z"/>
	<path id="path86" class="st2" d="M36.3,767.9h1.6v-0.7h-1.6V767.9z"/>
	<path id="path88" class="st2" d="M39.1,768.2l-0.9,0.2c0,0.3,0.1,0.5,0.1,0.7c0.1,0.2,0.2,0.3,0.3,0.4c0.1,0.1,0.2,0.2,0.4,0.2
		c0.1,0,0.3,0.1,0.5,0.1c0.3,0,0.5,0,0.7-0.1c0.2-0.1,0.3-0.2,0.4-0.4c0.1-0.1,0.1-0.3,0.2-0.6s0.1-0.5,0.1-0.7v-2
		c0-0.2,0-0.4,0-0.5c0-0.1,0-0.3,0.1-0.5H40c0,0.1-0.1,0.2-0.1,0.3c0,0.1,0,0.2,0,0.3c-0.1-0.2-0.2-0.4-0.4-0.5
		c-0.2-0.1-0.4-0.2-0.6-0.2c-0.3,0-0.5,0.1-0.7,0.4c-0.1,0.3-0.2,0.6-0.2,1c0,0.4,0.1,0.6,0.2,0.9c0.1,0.2,0.3,0.4,0.6,0.5
		c0.3,0.1,0.6,0.2,0.7,0.3c0.1,0.1,0.2,0.1,0.3,0.2c0,0.2,0,0.4-0.1,0.5c0,0.1-0.1,0.1-0.2,0.1c-0.1,0-0.3,0-0.3-0.1
		C39.2,768.6,39.1,768.4,39.1,768.2 M39.9,767.3c-0.1-0.1-0.3-0.2-0.4-0.2c-0.2-0.1-0.3-0.2-0.3-0.3c-0.1-0.1-0.1-0.2-0.1-0.3
		c0-0.1,0-0.3,0.1-0.3c0-0.1,0.1-0.1,0.2-0.1c0.1,0,0.2,0,0.3,0.1c0.1,0.1,0.1,0.2,0.2,0.4c0,0.1,0.1,0.3,0.1,0.5L39.9,767.3
		L39.9,767.3z"/>
	<path id="path90" class="st2" d="M41.4,770.9h0.9v-0.6h-0.9V770.9 M41.4,769.7h0.9v-4.6h-0.9V769.7z"/>
	<path id="path92" class="st2" d="M42.9,769.7h0.9V769c0.1,0.3,0.2,0.6,0.3,0.7c0.1,0.1,0.2,0.2,0.3,0.2c0.1,0,0.3-0.1,0.4-0.2
		l-0.3-1.3c-0.1,0.1-0.2,0.1-0.3,0.1c-0.1,0-0.2-0.1-0.3-0.3c-0.1-0.3-0.1-0.8-0.1-1.5v-1.5h-0.9V769.7z"/>
	<path id="path94" class="st2" d="M44.7,769.7h0.9l0.4-2.9l0.5,2.9h0.8l0.5-2.9l0.4,2.9h0.9l-0.9-4.6h-0.8l-0.5,2.8l-0.5-2.8h-0.8
		L44.7,769.7z"/>
	<path id="path96" class="st2" d="M50.2,768.2l-0.9,0.2c0,0.3,0.1,0.5,0.1,0.7c0.1,0.2,0.2,0.3,0.3,0.4c0.1,0.1,0.2,0.2,0.4,0.2
		c0.1,0,0.3,0.1,0.5,0.1c0.3,0,0.5,0,0.7-0.1c0.2-0.1,0.3-0.2,0.4-0.4c0.1-0.1,0.1-0.3,0.2-0.6c0-0.2,0.1-0.5,0.1-0.7v-2
		c0-0.2,0-0.4,0-0.5c0-0.1,0-0.3,0.1-0.5h-0.9c0,0.1-0.1,0.2-0.1,0.3c0,0.1,0,0.2,0,0.3c-0.1-0.2-0.2-0.4-0.4-0.5
		c-0.2-0.1-0.4-0.2-0.6-0.2c-0.3,0-0.5,0.1-0.7,0.4c-0.1,0.3-0.2,0.6-0.2,1c0,0.4,0.1,0.6,0.2,0.9c0.1,0.2,0.3,0.4,0.6,0.5
		c0.3,0.1,0.6,0.2,0.7,0.3c0.1,0.1,0.2,0.1,0.3,0.2c0,0.2,0,0.4-0.1,0.5c0,0.1-0.1,0.1-0.2,0.1c-0.1,0-0.3,0-0.3-0.1
		C50.3,768.6,50.2,768.4,50.2,768.2 M51,767.3c-0.1-0.1-0.3-0.2-0.4-0.2c-0.2-0.1-0.3-0.2-0.4-0.3c-0.1-0.1-0.1-0.2-0.1-0.3
		c0-0.1,0-0.3,0.1-0.3c0-0.1,0.1-0.1,0.2-0.1c0.1,0,0.2,0,0.3,0.1c0.1,0.1,0.1,0.2,0.2,0.4c0,0.1,0.1,0.3,0.1,0.5L51,767.3z"/>
	<path id="path98" class="st2" d="M52.2,769.7h1l0.5-3.1l0.5,3.1h0.9l-1-4.9c-0.1-0.6-0.2-0.9-0.3-1.1c-0.2-0.3-0.4-0.4-0.7-0.4
		c-0.1,0-0.3,0-0.6,0.1l-0.1,1.2c0.1-0.1,0.3-0.1,0.4-0.1c0.1,0,0.2,0,0.3,0.1c0.1,0.1,0.1,0.3,0.2,0.5L52.2,769.7L52.2,769.7z"/>
	<path id="path100" class="st2" d="M55.2,766.4l0.9,0.2c0-0.2,0.1-0.4,0.2-0.4c0.1-0.1,0.2-0.1,0.3-0.1c0.1,0,0.2,0,0.3,0.2
		c0.1,0.1,0.1,0.2,0.1,0.3c0,0.1,0,0.2-0.1,0.3c-0.1,0-0.2,0.1-0.4,0.2c-0.3,0.1-0.5,0.2-0.7,0.3c-0.1,0.1-0.2,0.2-0.3,0.5
		c-0.1,0.2-0.1,0.5-0.1,0.7c0,0.3,0,0.6,0.1,0.8c0.1,0.2,0.2,0.4,0.4,0.5c0.2,0.1,0.4,0.2,0.7,0.2c0.3,0,0.5,0,0.6-0.1
		c0.1-0.1,0.3-0.2,0.3-0.4c0.1-0.2,0.2-0.4,0.2-0.7l-0.9-0.2c0,0.1-0.1,0.3-0.1,0.3c-0.1,0.1-0.2,0.1-0.3,0.1c-0.1,0-0.2,0-0.2-0.1
		c0-0.1-0.1-0.2-0.1-0.3c0-0.1,0-0.2,0.1-0.3c0.1-0.1,0.2-0.1,0.4-0.2c0.3-0.1,0.5-0.2,0.7-0.3c0.2-0.1,0.3-0.3,0.3-0.5
		c0.1-0.2,0.1-0.5,0.1-0.7c0-0.3,0-0.5-0.1-0.8c-0.1-0.3-0.2-0.5-0.4-0.6c-0.2-0.1-0.4-0.2-0.7-0.2c-0.4,0-0.8,0.1-0.9,0.4
		C55.3,765.6,55.2,765.9,55.2,766.4z"/>
	<path id="path102" class="st2" d="M58.2,765.8h1v-0.7h-1V765.8z"/>
	<path id="path104" class="st2" d="M61.5,766.9l0.9-0.2c0-0.3-0.1-0.7-0.2-0.9c-0.1-0.3-0.3-0.5-0.4-0.6c-0.2-0.1-0.4-0.2-0.7-0.2
		c-0.3,0-0.5,0-0.6,0.1c-0.2,0.1-0.3,0.2-0.4,0.4c-0.1,0.2-0.2,0.4-0.3,0.7c-0.1,0.3-0.1,0.6-0.1,1.1c0,0.5,0,0.9,0.1,1.2
		c0.1,0.2,0.1,0.4,0.3,0.6c0.1,0.2,0.2,0.3,0.3,0.4c0.2,0.1,0.4,0.2,0.7,0.2c0.4,0,0.7-0.1,0.9-0.4c0.2-0.3,0.4-0.7,0.4-1.2
		l-0.9-0.2c0,0.2-0.1,0.3-0.1,0.4c-0.1,0.1-0.2,0.1-0.3,0.1c-0.2,0-0.3-0.1-0.4-0.3c-0.1-0.2-0.1-0.5-0.1-1c0-0.4,0-0.7,0.1-0.9
		c0.1-0.2,0.2-0.3,0.4-0.3c0.1,0,0.2,0.1,0.3,0.2C61.4,766.5,61.5,766.7,61.5,766.9z"/>
	<path id="path106" class="st2" d="M62.8,767.4c0,0.7,0.1,1.3,0.4,1.7c0.2,0.5,0.6,0.7,1,0.7c0.5,0,0.9-0.3,1.1-0.8
		c0.2-0.4,0.3-1,0.3-1.6c0-0.7-0.1-1.3-0.4-1.7c-0.2-0.5-0.6-0.7-1-0.7c-0.4,0-0.7,0.2-0.9,0.6C62.9,766,62.8,766.6,62.8,767.4
		 M63.7,767.4c0-0.4,0-0.7,0.1-0.9c0.1-0.2,0.2-0.3,0.3-0.3c0.1,0,0.2,0.1,0.3,0.3c0.1,0.2,0.1,0.5,0.1,0.9c0,0.4,0,0.7-0.1,0.9
		c-0.1,0.2-0.2,0.3-0.3,0.3c-0.1,0-0.2-0.1-0.3-0.3C63.7,768.1,63.7,767.8,63.7,767.4z"/>
	<path id="path108" class="st2" d="M66,769.7h0.9v-0.7c0.1,0.3,0.3,0.5,0.4,0.6c0.1,0.1,0.3,0.2,0.5,0.2c0.2,0,0.3-0.1,0.5-0.2
		c0.1-0.1,0.2-0.3,0.3-0.6c0.1,0.3,0.3,0.5,0.4,0.6c0.1,0.1,0.3,0.2,0.4,0.2c0.3,0,0.5-0.1,0.6-0.4c0.1-0.3,0.2-0.8,0.2-1.4v-2.9
		h-0.9v2.6c0,0.2,0,0.4-0.1,0.5c-0.1,0.2-0.1,0.2-0.2,0.2c-0.1,0-0.2-0.1-0.3-0.2c-0.1-0.2-0.1-0.4-0.1-0.7v-2.4h-0.9v2.5
		c0,0.2,0,0.3,0,0.4c0,0.1-0.1,0.2-0.1,0.3c0,0.1-0.1,0.1-0.2,0.1c-0.1,0-0.2-0.1-0.3-0.2c-0.1-0.2-0.1-0.4-0.1-0.8v-2.4H66
		L66,769.7L66,769.7z"/>
</g>
</svg>
