<?xml version="1.0" encoding="utf-8"?>
<!-- Generator: Adobe Illustrator 25.4.1, SVG Export Plug-In . SVG Version: 6.00 Build 0)  -->
<svg version="1.1" id="Layer_1" xmlns="http://www.w3.org/2000/svg" xmlns:xlink="http://www.w3.org/1999/xlink" x="0px" y="0px"
	 viewBox="0 0 2123.2 327.8" style="enable-background:new 0 0 2123.2 327.8;" xml:space="preserve">
<style type="text/css">
	.st0{fill:url(#SVGID_1_);}
	.st1{fill:url(#SVGID_00000131368761500064721330000004264488321056404653_);}
	.st2{fill:url(#SVGID_00000081628947623426723770000010997407186346094722_);}
	.st3{fill:#394C75;}
</style>
<linearGradient id="SVGID_1_" gradientUnits="userSpaceOnUse" x1="1202.168" y1="304.9831" x2="1202.168" y2="260.6631" gradientTransform="matrix(2.841 0 0 -2.841 -1572.783 873.8862)">
	<stop  offset="0" style="stop-color:#00D9FF"/>
	<stop  offset="1" style="stop-color:#0E518A"/>
</linearGradient>
<path class="st0" d="M1758,5.5c35.5,0,58.5-5.5,84.5,24.6l84.8,104.8h-63c-14.2,0-30.5-4.1-43.7-26.4L1758,5.5z"/>
<linearGradient id="SVGID_00000003062893503215619490000011707587358349824142_" gradientUnits="userSpaceOnUse" x1="1217.8729" y1="220.8131" x2="1287.3829" y2="220.8131" gradientTransform="matrix(2.841 0 0 -2.841 -1572.783 873.8862)">
	<stop  offset="0" style="stop-color:#F12E1F"/>
	<stop  offset="1" style="stop-color:#9F1E1C"/>
</linearGradient>
<path style="fill:url(#SVGID_00000003062893503215619490000011707587358349824142_);" d="M1950.7,165.3l134,162.5h-93.9
	c-32.5,0-51.1-19.3-63.2-40.1l-40.3-68.6l11.7-36.1L1950.7,165.3z"/>
<linearGradient id="SVGID_00000166648346028146452980000012677672850931046041_" gradientUnits="userSpaceOnUse" x1="1220.5929" y1="241.1647" x2="1257.7129" y2="241.8747" gradientTransform="matrix(2.841 0 0 -2.841 -1572.783 873.8862)">
	<stop  offset="0" style="stop-color:#E6EAEF"/>
	<stop  offset="1" style="stop-color:#95AAB1"/>
</linearGradient>
<path style="fill:url(#SVGID_00000166648346028146452980000012677672850931046041_);" d="M1896.3,235.4l-31-52.3
	c-9-16.2-0.9-35.5,32.1-39.1s90.4-9.1,106.6,24.5C1959.4,163.9,1892.9,177.5,1896.3,235.4z"/>
<path class="st3" d="M300.6,264.7V200c0-21.2-7.7-32.4-22.2-32.4c-10,0.3-18.8,6.9-21.9,16.5c-1.1,3.3-1.6,6.8-1.5,10.3v70.3h-27.3
	v-67.8c0-18.6-7.8-29.3-21.4-29.3c-12,0-19.7,9.4-22.7,17.5c-1,3.4-1.5,6.8-1.5,10.3v69.3h-27.2v-82.4c0-13.3-0.5-24.7-0.9-34.4
	h23.7l1.6,17.5h2.2l0.3-0.5c7.3-12.7,21.1-20.4,35.8-19.9c14.1-0.3,26.9,8.2,32,21.3l0.3,0.6h1.7l0.3-0.5
	c3.6-5.9,8.4-10.8,14.2-14.6c7-4.8,15.4-7.2,23.9-6.9c9,0,38.5,3.6,38.5,50.5v69L300.6,264.7z M407.4,267.1
	c-37.2,0-60.3-22.7-60.3-59c0-30.3,17.9-63,57.1-63c37.1,0,50.3,30.6,50.3,56.8c0,3.9-0.2,7.8-0.8,11.7h-79.7v1
	c0.8,23.4,19.9,31.7,37.6,31.7c10.9,0.1,21.8-1.6,32.2-5.1l4,18.6C434.8,265,421.1,267.4,407.4,267.1L407.4,267.1z M402.5,163.7
	c-20.1,0-27.4,18.8-28.4,29.9v1.1h54.2v-0.9c0-3.4-0.3-15.3-8.1-23.2c-4.7-4.6-11-7.1-17.6-6.8H402.5z M475.7,264.7v-79.5
	c0-16.7-0.3-27.6-0.9-37.3h23.9l1.2,22.4h2.4l0.2-0.7c5.2-14.9,17.7-24.5,31.8-24.5c2.5,0,4.1,0.2,11,0.6v26.1
	c-7.4-0.4-9.8-0.5-12.9-0.5c-14.2,0-24.9,9-27.8,23.5c-0.5,3.1-0.8,6.1-0.7,9.2v60.7H475.7z M667.9,267.1
	c-36.6,0-60.3-23.5-60.3-59.7c0-37.2,26.2-62.2,65.1-62.2c9.5,0,19,1.7,27.9,5l-4.9,20.7c-6.9-3-14.5-4.4-22-4.2
	c-9.9-0.3-19.5,3.4-26.5,10.3c-7.4,7.9-11.3,18.4-10.8,29.1c0,23.5,15,39.3,37.3,39.3c7.8,0.1,15.6-1.3,22.9-4.2l3.8,20.3
	C690,265.4,679,267.3,667.9,267.1L667.9,267.1z M749.9,267.4c-23.9,0-36.3-17.3-36.3-34.4c0-28.4,24.3-43.9,68.5-43.9h2.1v-2.8
	c0-8.1-3.3-21.7-25.1-21.7c-11,0-21.8,2.9-31.4,8.3l-5.3-17.6c12.8-6.9,27.2-10.3,41.8-10c39.8,0,48.1,26.8,48.1,49.3v42.6
	c-0.2,9.2,0.4,18.5,1.7,27.6h-25.1l-2.2-13.2h-2l-0.3,0.4c-7.5,9.8-19.9,15.5-34.3,15.5L749.9,267.4z M782.1,206.6
	c-27.1,0-40.8,7.8-40.8,23.2c0,11.1,6.9,18,18,18c11,0.2,20.9-6.7,24.6-17c0.6-2.2,0.9-4.6,0.8-6.9v-17.3L782.1,206.6z M912.6,264.7
	v-66.1c0-19.9-8.5-31-23.7-31c-11.2,0.3-20.9,7.6-24.3,18.2c-1.1,3.2-1.6,6.5-1.5,9.9v69H835v-82.4c0-13.3-0.5-24.7-0.9-34.4h24.2
	l1.4,17.7h2.2l0.3-0.5c8-12.8,22.2-20.3,37.2-19.9c19.9,0,41.2,13.2,41.2,50v69.5L912.6,264.7z M1197.5,264.7v-79.5
	c0-16.7-0.3-27.6-0.9-37.3h23.9l1.2,22.4h2.4l0.2-0.7c5.3-14.9,17.7-24.5,31.8-24.5c2.5,0,4.1,0.2,11,0.6v26.1
	c-7.4-0.4-9.9-0.5-12.9-0.5c-14.2,0-25,9-27.8,23.5c-0.5,3.1-0.8,6.1-0.7,9.2v60.7L1197.5,264.7z M1279.4,93.4h28v171.3h-28V93.4z
	 M1472.4,264.7v-66.1c0-19.9-8.5-31-23.7-31c-11.2,0.3-20.9,7.6-24.3,18.2c-1.1,3.2-1.6,6.5-1.5,9.9v69H1395v-82.4
	c0-13.3-0.5-24.7-0.9-34.4h24.2l1.4,17.8h2.2l0.3-0.5c8-12.8,22.1-20.3,37.2-19.9c19.9,0,41.3,13.2,41.3,50v69.5L1472.4,264.7z
	 M1582.2,267.1c-37.2,0-60.3-22.7-60.3-59c0-30.3,17.8-63,57.1-63c37.1,0,50.3,30.6,50.3,56.8c0,3.9-0.3,7.8-0.8,11.7h-79.7v1
	c0.8,23.4,19.9,31.7,37.6,31.7c10.9,0.1,21.8-1.6,32.2-5.1l4,18.6C1609.6,265,1595.9,267.4,1582.2,267.1L1582.2,267.1z
	 M1577.3,163.7c-20.2,0-27.4,18.8-28.4,29.9v1.1h54.2v-0.9c0-3.4-0.3-15.3-8.1-23.2c-4.7-4.6-11-7.1-17.6-6.8H1577.3z M1678.3,267.1
	c-12.1,0.2-24.1-2.5-34.9-7.8l5.7-19.9c9.1,5,19.3,7.9,29.7,8.3c12.7,0,19.9-5.3,19.9-14.4c0-9.1-6.5-13.2-20.1-18.2
	c-21-7.1-32-18.7-32-33.7c0-21.3,18-36.1,43.9-36.1c10.6-0.2,21,2.1,30.6,6.6l-5.7,19c-7.6-4-16-6.2-24.5-6.4
	c-10.7,0-17.6,5.4-17.6,13.7c0,8.3,6.3,11.9,21.4,17.5c21.6,7.5,30.9,18,31.1,35.2c0,22.4-18.1,36.3-47.3,36.3L1678.3,267.1z
	 M111.5,264.7h30.4L89.1,102.2H52.1L0,264.7h29l10.3-35.8h61.4L111.5,264.7z M45.3,208.5l15.3-52.8c1.7-6.2,3.4-13.2,5.1-19.9
	c0.9-3.8,1.8-7.4,2.8-10.9l0.2-0.7h2l1.6,6.3c2,8,4.3,17,6.9,25.1l15.7,52.9L45.3,208.5z M1094.5,264.7h30.5l-52.9-162.5h-36.9
	l-52.1,162.5h28.9l10.3-35.8h61.4L1094.5,264.7z M1028.5,208.5l15.3-52.8c1.7-6.2,3.4-13.2,5.1-19.9c0.9-3.8,1.8-7.4,2.8-10.9
	l0.2-0.7h2l1.6,6.3c2,8,4.3,17,6.8,25.1l15.7,52.9L1028.5,208.5z M560.6,264.7V147.8h28.1v116.9H560.6z M562.1,103.2h25.2v24h-25.2
	V103.2z M1138.7,264.7V147.8h28v116.9H1138.7z M1140.2,103.2h25.2v24h-25.2V103.2z M1339.4,264.7V147.8h28v116.9H1339.4z
	 M1340.9,103.2h25.2v24h-25.2V103.2z M2097.6,313.1h-5v-1.8h12.2v1.8h-5v14.7h-2.2V313.1z M2120.5,320.6c0-2.3-0.3-5.1-0.3-7.1
	c-0.6,1.9-1.3,4-2.1,6.3l-2.8,8h-1.6l-2.8-7.8c-0.8-2.3-1.4-4.4-1.9-6.4c0,2-0.1,4.8-0.3,7.3l-0.4,7.1h-2l1.2-16.5h2.8l2.8,8
	c0.7,2,1.2,3.8,1.7,5.7c0.5-1.7,1-3.5,1.8-5.7l2.8-8h2.8l1,16.5h-2.1L2120.5,320.6z"/>
</svg>
