<?xml version="1.0" encoding="utf-8"?>
<!-- Generator: Adobe Illustrator 25.4.1, SVG Export Plug-In . SVG Version: 6.00 Build 0)  -->
<svg version="1.1" id="layer" xmlns="http://www.w3.org/2000/svg" xmlns:xlink="http://www.w3.org/1999/xlink" x="0px" y="0px"
	 viewBox="0 0 599.9 105.9" style="enable-background:new 0 0 599.9 105.9;" xml:space="preserve">
<style type="text/css">
	.st0{fill:#00285E;}
	.st1{fill:#E62310;}
</style>
<path class="st0" d="M94.2,32.3c2.1,0,3.6,0.7,4.8,1.2c2.5,1.2,5.4,2.5,9,4.3c0,0,5.8-4.2,6.2-4.4c2-1.3,3.9-0.3,4.5,0.8
	c2.2,4.1,6.2,12.6,8.3,20.4c0.3,0.9,0,2.4-1.5,2.8c-0.8,0.3-2.3,0.5-3.8,0.7c-2.1,0.3-2.1,2-2.1,3c0,1.3,0,9.9,0,12.8
	c0.1,1.8-1.3,7.7-8.2,7.7c-0.5,0-15.7,0-15.6,0c-5.9,0-10.6-4.9-10.7-10.3c0-3.5,0-27.7,0-30.5C85.2,35.8,89.9,32.3,94.2,32.3"/>
<path class="st0" d="M69.5,81.8H18.9v5.6h59.4c0,0,2.1-5,2.1-10.5c0-0.3,0-38.2,0-38.2c0-3,1.2-8.1,7.4-9.5c0.2,0,0.3-0.1,0.5-0.1
	c17.5-4.1,35.6-0.4,45.8,4c1.8,0.9,2.3-0.6,2.2-1.2c0.2-8.6-6.3-18.4-18.3-18.9c-9.7-0.2-15.2,3.3-17.2,4.3c-0.1,0.1-0.4,0-0.6-0.2
	c-1.8-1.8-5.6-4.4-10-5.7c-0.6-0.1-0.7-1.1,0-1.2c9.2-1,17.3,0.1,20.7,0.6c0.8,0.1,1.3-0.3,1-1c-0.2-0.6-0.4-0.8-0.8-1.6
	c-0.8-1.8-3-3.6-5.8-4.4C98.1,1.8,85.7,0,74.7,0C62.3-0.1,49.3,2.4,46,3.1c-0.8,0.2-1.9,0.5-2.1,0.5c-0.9,0.2-1.1,1-0.7,1.5
	c0.2,0.3,0.9,0.8,1.2,1.2c0.4,0.5,0.6,1.2-0.2,2L21.3,28.9H37h0.2c1,0,2,0.9,2,2.1c0,1-0.8,2.1-1.9,2.1H17l-6.2,5.7h26.7h0.1
	c1,0,1.9,1.1,1.8,2.1c0,0.9-0.8,2-1.8,2H6.3l-6.2,5.6h53.8h0.2c1.1,0,1.9,1.1,1.9,2c0,1.1-0.8,2.1-1.8,2.1H0v5.6h53.8H54
	c1.2,0,1.9,1.1,1.9,2.1c0,0.9-0.9,1.9-2,1.9H0v5.7h70.4c1.2,0,1.9,1,1.9,2.1c0,1-0.8,2-1.9,2H18.9v5.6h51.7c1,0,1.8,1.2,1.8,2.1
	c0,1-0.8,2-1.8,2L69.5,81.8"/>
<path class="st0" d="M37.8,101.2v5.8c0,0,7.6,0,11.9,0c10.7-0.1,17.7-5.8,17.7-5.8H37.8"/>
<path class="st0" d="M37.8,91.6v5.6h34.4c1.6-1.6,3.6-4.5,4.2-5.6H37.8"/>
<path class="st0" d="M592.2,56.7c0-0.1,0-0.2,0-0.3c-0.2-4.4-1.7-8.3-3.7-11.4c-4.2-6.7-11.7-10.3-20.7-10.2
	c-9-0.1-16.5,3.5-20.7,10.2c-2.1,3-3.5,6.9-3.7,11.4c0,0.1,0,0.2,0,0.3c-1.2,14.7,7.3,24.8,21.9,26c0.9,0.1,1.7,0.1,2.6,0.1
	c0.8,0,1.7,0,2.6-0.1C584.9,81.5,593.4,71.4,592.2,56.7 M568.9,75.8c-0.4,0-0.8,0-1.1,0.1c-0.4,0-0.7,0-1.1-0.1
	c-2.1-0.2-3.8-1-5.4-2.1c-0.5-0.4-0.9-0.8-1.3-1.2c-2.2-2.5-3.4-6.8-3.7-10.2c-0.7-7.9,0.9-19.5,10.7-20.3c0.2,0,0.5,0,0.7,0
	c0.1,0,0.1,0,0.1,0c0.1,0,0.1,0,0.1,0c0.2,0,0.5,0,0.7,0c9.7,0.8,11.3,12.4,10.7,20.3c-0.3,3.4-1.4,7.6-3.7,10.2
	c-0.4,0.5-0.9,0.9-1.3,1.2C572.7,74.9,570.9,75.7,568.9,75.8"/>
<path class="st0" d="M495.3,45.8c0-3.6,0.4-10,0.4-10h-12c0,0,0.4,6.4,0.4,10v26.1c0,3.6-0.3,9.8-0.3,9.8h12c0,0-0.3-6.2-0.3-9.8
	L495.3,45.8"/>
<path class="st0" d="M425.6,74.7c-2.5,0-5.8,0-8.3,0c-0.1-4.6-0.2-9.1-0.2-13.1v-0.7h13.8v-6.5h-13.8c0-7,0.2-11.6,0.2-11.6h17.1
	v-6.9c-12,0-29.3,0-29.3,0s0.3,6.3,0.3,10V72c0,3.3-0.2,9-0.3,9.9h30.4v-7.3C435.5,74.5,429.5,74.7,425.6,74.7"/>
<path class="st0" d="M226.4,74.7c-2.5,0-5.8,0-8.3,0c-0.1-4.6-0.2-9.1-0.2-13.1v-0.7h13.8v-6.5h-13.8c0-7,0.2-11.6,0.2-11.6h17.1
	v-6.9c-12,0-29.3,0-29.3,0s0.3,6.4,0.3,10V72c0,3.3-0.2,9-0.3,9.9h30.4v-7.3C236.4,74.5,230.4,74.7,226.4,74.7"/>
<path class="st0" d="M464.7,57l13.2-21.2h-9.1l-0.1,0.2c-2.8,4.8-6.2,10.6-7.6,12.7l-0.5,0.9l-7.7-13.7h-13.7l13.2,23.8l-13.8,22.2
	h9.1c5.9-10.1,8.9-14.7,8.9-14.7l8.2,14.7h13.7L464.7,57"/>
<path class="st0" d="M532.6,75.5c-10.6,0-16.4-7.8-16.1-17.4c0.3-8.4,4.1-15.5,13.2-16.1c3.5-0.2,6.4,0.4,11.3,1.7l-0.5-7.2
	c0,0-4.1-1.3-10.1-1.5c-7.6-0.3-14.4,1.2-19.9,6.2c-4.9,4.5-7.8,11.1-7.8,17.5c0,7.1,2.9,13.7,8.4,18.2c5.7,4.8,11.8,5.9,19.1,5.9
	c4.8,0,7.6-0.3,12.2-1.6l-0.7-7.1C540.8,74.4,537.4,75.5,532.6,75.5"/>
<path class="st0" d="M379.2,28.9h13.3l0.4,3.1c3,30.7,4.8,49.8,4.8,49.8h-13.9l-1.4-19l-1.3-17l-11.7,36c-3.1,0-7.4,0-7.4,0
	s-3.7-12.8-4.4-14.6l-6.7-21.6c0,0-1,12-1.4,17.2c-0.8,10.3-1.5,19-1.5,19h-10.3c0,0,4.2-43,4.5-45.6c0.3-2.7,0.8-7.3,0.8-7.3h13.6
	l11.3,31L379.2,28.9"/>
<path class="st0" d="M332,56.8c0-0.1,0-0.2,0-0.3c-0.2-4.4-1.6-8.3-3.7-11.3c-4.2-6.6-11.7-10.2-20.6-10.1
	c-9-0.1-16.4,3.5-20.6,10.1c-2,3-3.5,6.9-3.7,11.3c0,0.1,0,0.2,0,0.3c-1.2,14.6,7.3,24.7,21.8,25.8c0.9,0.1,1.7,0.1,2.6,0.1
	c0.8,0,1.7,0,2.5-0.1C324.7,81.5,333.2,71.4,332,56.8 M308.8,75.8c-0.4,0-0.8,0.1-1.1,0.1c-0.4,0-0.7,0-1.1-0.1
	c-2.1-0.2-3.8-0.9-5.3-2.1c-0.4-0.4-0.9-0.8-1.3-1.3c-2.2-2.5-3.4-6.8-3.7-10.2c-0.7-7.9,0.9-19.4,10.6-20.2c0.3,0,0.5,0,0.7,0h0.2
	c0.2,0,0.5,0,0.7,0c9.7,0.8,11.3,12.3,10.6,20.2c-0.3,3.4-1.4,7.6-3.7,10.2c-0.4,0.5-0.8,0.9-1.3,1.3
	C312.5,74.9,310.7,75.6,308.8,75.8"/>
<path class="st0" d="M203.1,81.8c-0.4-1-2.9-6.8-4.7-11.5L182.9,29h-12.1c0,0-3.5,9.7-4,11.3l-11.3,32.1c-1.5,4.1-3.5,9.5-3.5,9.5
	h9.9c0,0,2.8-8.9,3.4-10.5l1.5-4.5h17.1l2.3,6.8c0.5,1.3,2.5,8.1,2.5,8.2h14.4 M169.2,59.2l5.8-17.1l0.3-1l6,18.1H169.2z"/>
<path class="st0" d="M283.9,81.8c-2.9-4.1-3.9-5.8-6.1-8.8l-8.2-12.8c4-2,7.7-5.2,8.2-12.1c0.3-4.3-1.9-7.8-3.3-9
	c-2-1.8-3.9-2.5-6.7-2.8c-2.2-0.3-3.8-0.3-5.1-0.4h-19.4c0,0,0.2,6.4,0.2,10v26c0,3.6-0.2,10-0.2,10h11.9c0,0-0.4-6.4-0.4-10
	l0.1-8.3c0,0,2.6,0,4.4,0l7.6,13.8c1,1.8,2.5,4,2.8,4.5h14.2 M262.8,56.1c-1.8,0.9-5.8,0.7-7.8,0.6l0.2-13.1l1.1-0.1
	c3.7-0.3,6.3,0.2,7.4,0.7c1.6,0.7,2.6,2.3,2.7,4.9C266.5,52.9,265,54.9,262.8,56.1"/>
<path class="st0" d="M590.9,77.3c0-2.5,2-4.5,4.5-4.5s4.5,2,4.5,4.5s-2,4.5-4.5,4.5C593,81.8,590.9,79.8,590.9,77.3 M598.9,77.3
	c0-2.1-1.5-3.7-3.4-3.7s-3.4,1.5-3.4,3.7c0,2.1,1.5,3.6,3.4,3.6S598.9,79.4,598.9,77.3 M593.7,74.7h1.9c1.2,0,1.9,0.4,1.9,1.5
	c0,0.9-0.5,1.3-1.3,1.4l1.4,2.2h-1l-1.3-2.2h-0.6v2.2h-0.9v-5.1H593.7z M594.7,76.9h0.8c0.6,0,1-0.1,1-0.8c0-0.6-0.6-0.7-1-0.7h-0.9
	v1.5H594.7z"/>
<path class="st1" d="M465.3,94.7c-89.1-19.4-127,11.1-127,11.1s41.5-24.5,127-5.9c87.3,19,127-13.5,127-13.5S548,112.7,465.3,94.7"
	/>
</svg>
