<?xml version="1.0" encoding="utf-8"?>
<!-- Generator: Adobe Illustrator 25.4.1, SVG Export Plug-In . SVG Version: 6.00 Build 0)  -->
<svg version="1.1" id="Layer_1" xmlns="http://www.w3.org/2000/svg" xmlns:xlink="http://www.w3.org/1999/xlink" x="0px" y="0px"
	 viewBox="0 0 882 157.3" style="enable-background:new 0 0 882 157.3;" xml:space="preserve">
<style type="text/css">
	.st0{fill:#009640;}
	.st1{fill:#FFFFFF;}
	.st2{fill:#E84E0F;}
</style>
<g>
	<polygon class="st0" points="97.9,99.7 97.9,78.8 0,78.8 0,157.3 97.9,157.3 97.9,136.4 35.7,136.4 35.7,127.7 97.9,127.7 
		97.9,108.4 35.7,108.4 35.7,99.7 	"/>
	<polygon class="st0" points="108.3,78.7 146.1,78.7 166.3,127.4 186.8,78.6 224.2,78.6 187.9,157.3 144.7,157.3 	"/>
	<path class="st0" d="M296.3,157.3h37l-40.2-78.8H250l-40.5,78.9h37.2l5.6-11.2h38.6L296.3,157.3z M262.1,126.4l9.5-19.2l9.5,19.2
		H262.1z"/>
	<path class="st0" d="M435.2,157.3h37L432,78.6h-43.2l-40.5,78.9h37.2l5.6-11.2h38.6L435.2,157.3z M401,126.4l9.5-19.2l9.5,19.2H401
		z"/>
	<rect x="484.7" y="78.7" class="st0" width="36.5" height="78.6"/>
	<path class="st0" d="M632.1,121.6c9.3,0,9.1-10.5,9.1-10.5V97.6c0-17.2-18.3-18.8-18.3-18.8l-84,0v78.6h36.5v-27.1h24.3
		c1.8,0,2.9,0.6,3.7,1.4c1.3,1.5,1.3,3.6,1.3,3.6v22.1h36.5v-22.1C641.3,122.6,632.1,121.6,632.1,121.6 M600.6,109.9h-25.5V98.6
		h25.5c3.1,0,5.7,2.5,5.7,5.7C606.3,107.4,603.8,109.9,600.6,109.9"/>
	<polygon class="st1" points="790.8,0 667.7,157.3 811.3,157.3 866.1,0 	"/>
	<polygon class="st2" points="871.7,0 816.9,157.3 827.2,157.3 882,0 	"/>
	<path class="st1" d="M805.6,77.7h15.8c-0.2-8.9-2.5-17.2-6.6-24.5c-4.1,2.2-8.3,4.1-12.6,5.7C804.3,64.8,805.4,71.2,805.6,77.7"/>
	<path class="st1" d="M788.4,77.7h15.4c-0.1-6.3-1.3-12.4-3.3-18.2c-4.4,1.5-8.9,2.7-13.4,3.6C787.9,67.8,788.3,72.7,788.4,77.7"/>
	<path class="st0" d="M790.8,0L667.7,157.3h143.6L866.1,0H790.8z M769.4,133.9c-23.3,0-43.8-14.4-51.8-36v0l58.1-74.2h0
		c27.7,3.1,49,26.7,49,54.9C824.7,109.1,799.9,133.9,769.4,133.9"/>
	<path class="st2" d="M775.7,23.6l-1.2,1.6l-1,1.3l-0.2,0.3l-0.9,1.1c6,3,11.4,7,15.9,11.8c-2.2,1.7-4.6,3-7.1,4
		c-2.4-5.5-5.4-10.8-8.9-15.8l-1.1,1.5c3.3,4.7,6.1,9.7,8.4,14.9c-2.9,1-6.1,1.6-9.2,1.6V30.6l-1.8,2.3V46c-3.1-0.1-6.1-0.6-9-1.6
		c-0.1,0-4.2,5.4-4.2,5.4c-1.3,3.8-2.4,7.6-3.2,11.6c-1.7-0.3-3.3-0.7-5-1.1l-1.2,1.6c1.9,0.5,3.9,0.9,5.9,1.3
		c-0.8,4.8-1.3,9.7-1.4,14.6H735l0.1-2.1l-3.1,3.9h1.2c0.1,6.6,1.3,12.9,3.4,18.8c-4.3,1.6-8.5,3.5-12.5,5.7c-1.6-2.9-3-6-4-9.2
		l-1.2,1.6l-1.2,1.6c8,21.6,28.5,36,51.8,36c30.5,0,55.3-24.8,55.3-55.3C824.7,50.3,803.4,26.8,775.7,23.6 M821.3,77.7h-15.8
		c-0.1-6.5-1.3-12.8-3.4-18.8c4.3-1.6,8.5-3.5,12.6-5.7C818.8,60.5,821.2,68.8,821.3,77.7 M752.2,79.5h16.3v13
		c-5.1,0.1-10.1,0.5-15,1.4C752.6,89.1,752.2,84.3,752.2,79.5 M770.3,64.7c5,0,10.1-0.5,15-1.4c0.8,4.7,1.3,9.5,1.3,14.3h-16.3V64.7
		z M786.6,79.5c-0.1,4.8-0.5,9.6-1.3,14.3c-5-0.8-10-1.3-15-1.4v-13H786.6z M753.8,95.5c4.8-0.8,9.8-1.3,14.7-1.3v15.2
		c-3.4,0.1-6.8,0.7-9.9,1.8C756.5,106.1,754.9,100.9,753.8,95.5 M756.9,111.8c-2.7,1.1-5.3,2.6-7.6,4.4c-4.4-5-8-10.7-10.4-16.9
		c4.3-1.5,8.7-2.7,13.2-3.5C753.2,101.3,754.8,106.7,756.9,111.8 M770.3,94.2c4.9,0.1,9.8,0.5,14.7,1.3c-1.1,5.4-2.7,10.6-4.7,15.7
		c-3.2-1.1-6.5-1.7-10-1.8V94.2z M786.7,95.8c4.5,0.8,8.9,2,13.2,3.5c-2.4,6.2-5.9,11.9-10.4,16.9c-2.3-1.8-4.9-3.3-7.7-4.4
		C784,106.6,785.6,101.3,786.7,95.8 M787,94.1c0.8-4.8,1.3-9.7,1.3-14.6h15.4c-0.1,6.3-1.2,12.5-3.3,18.2
		C796.1,96.1,791.6,94.9,787,94.1 M788.4,77.7c0-4.9-0.5-9.8-1.4-14.6c4.6-0.9,9.1-2.1,13.4-3.6c2.1,5.8,3.2,11.9,3.3,18.2H788.4z
		 M813.8,51.6c-4,2.2-8.1,4-12.3,5.6c-2.5-6.3-6.1-12.2-10.6-17.3c2-1.7,3.8-3.7,5.4-5.8C803.4,38.4,809.4,44.5,813.8,51.6
		 M774.2,26.9c7.4,0.7,14.3,2.9,20.4,6.3c-1.5,2-3.2,3.8-5,5.4C785.3,33.9,780.1,29.9,774.2,26.9 M789.5,41
		c4.4,5,7.9,10.6,10.3,16.8c-4.3,1.5-8.7,2.6-13.1,3.5c-1.1-5.5-2.7-10.8-4.8-15.9C784.6,44.3,787.1,42.8,789.5,41 M780.2,46
		c2.1,5,3.7,10.3,4.7,15.6c-4.9,0.8-9.8,1.3-14.7,1.3V47.8C773.7,47.7,777.1,47.1,780.2,46 M758.6,45.9c3.2,1.1,6.5,1.7,9.9,1.8
		v15.2c-4.9,0-9.8-0.5-14.7-1.3C754.9,56.3,756.5,51,758.6,45.9 M753.5,63.3c4.9,0.8,10,1.3,15,1.4v13h-16.3
		C752.2,72.8,752.7,68,753.5,63.3 M735,79.5h15.4c0.1,5,0.5,9.8,1.4,14.6c-4.6,0.9-9.1,2.1-13.5,3.6C736.2,91.9,735.1,85.8,735,79.5
		 M737.2,99.9c2.5,6.4,6.1,12.3,10.7,17.4c-2,1.7-3.7,3.6-5.3,5.8c-7.2-4.3-13.3-10.3-17.7-17.6C728.9,103.3,733,101.5,737.2,99.9
		 M744.1,124c1.4-2,3.1-3.7,4.9-5.3c4.4,4.6,9.6,8.5,15.4,11.6C757.2,129.6,750.3,127.4,744.1,124 M750.4,117.6
		c2.2-1.7,4.6-3,7.1-4.1c2.4,5.6,5.5,10.9,9.1,16C760.5,126.4,755,122.4,750.4,117.6 M768.5,129c-3.7-5.1-6.8-10.5-9.3-16.1
		c2.9-1,6.1-1.6,9.3-1.7V129z M770.3,111.2c3.2,0.1,6.3,0.7,9.3,1.7c-2.5,5.7-5.6,11.1-9.3,16.2V111.2z M781.2,113.4
		c2.6,1,4.9,2.4,7.1,4.1c-4.6,4.8-10,8.9-16.2,11.9C775.7,124.4,778.8,119,781.2,113.4 M774.3,130.3c5.8-3.1,11-7,15.4-11.6
		c1.8,1.6,3.4,3.3,4.9,5.3C788.5,127.4,781.6,129.6,774.3,130.3 M796.2,123c-1.5-2.1-3.3-4-5.3-5.7c4.5-5.1,8.2-11,10.7-17.4
		c4.2,1.5,8.3,3.4,12.2,5.5C809.5,112.6,803.4,118.7,796.2,123 M814.7,103.9c-4-2.2-8.2-4.1-12.5-5.7c2.1-5.9,3.3-12.2,3.4-18.8
		h15.8C821.2,88.3,818.8,96.7,814.7,103.9"/>
	<polygon class="st1" points="774.8,91 787.9,97 781.7,83.7 798.5,79.6 798.5,77.6 781.7,73.4 788.1,59.9 774.7,66.1 770.5,42.1 
		768.2,42.1 764.1,66.1 750.7,59.9 757,73.4 740.2,77.6 740.2,79.5 757,83.6 750.9,97 764,91 768.1,115 770.4,115 	"/>
	<polygon class="st0" points="769.4,43.5 773.8,68 785.5,62.4 780,74.2 797.6,78.5 780,82.9 785.3,94.4 773.8,89.2 769.3,113.4 
		765,89.2 753.5,94.4 758.8,82.9 741.2,78.5 758.8,74.2 753.3,62.4 765,67.9 	"/>
</g>
</svg>
