<?xml version="1.0" encoding="utf-8"?>
<!-- Generator: Adobe Illustrator 25.4.1, SVG Export Plug-In . SVG Version: 6.00 Build 0)  -->
<svg version="1.1"
	 id="svg8" xmlns:cc="http://creativecommons.org/ns#" xmlns:dc="http://purl.org/dc/elements/1.1/" xmlns:inkscape="http://www.inkscape.org/namespaces/inkscape" xmlns:rdf="http://www.w3.org/1999/02/22-rdf-syntax-ns#" xmlns:sodipodi="http://sodipodi.sourceforge.net/DTD/sodipodi-0.dtd" xmlns:svg="http://www.w3.org/2000/svg"
	 xmlns="http://www.w3.org/2000/svg" xmlns:xlink="http://www.w3.org/1999/xlink" x="0px" y="0px" viewBox="0 0 571.4 80"
	 style="enable-background:new 0 0 571.4 80;" xml:space="preserve">
<style type="text/css">
	.st0{fill:#005D63;}
</style>
<sodipodi:namedview  bordercolor="#666666" borderopacity="1.0" gridtolerance="10000" guidetolerance="10000" id="base" inkscape:current-layer="layer1" inkscape:cx="92.830339" inkscape:cy="1.8928838" inkscape:document-rotation="0" inkscape:document-units="px" inkscape:pageopacity="0" inkscape:pageshadow="2" inkscape:showpageshadow="false" inkscape:window-height="745" inkscape:window-maximized="1" inkscape:window-width="1366" inkscape:window-x="-8" inkscape:window-y="-8" inkscape:zoom="5.6568543" objecttolerance="10000" pagecolor="#ffffff" showgrid="false" units="px">
	</sodipodi:namedview>
<g id="layer1" inkscape:groupmode="layer" inkscape:label="Capa 1">
	
		<g id="rect47" transform="translate(-26.51797,125.72359)" inkscape:transform-center-x="0.52916666" inkscape:transform-center-y="0.79374994">
	</g>
	<g id="rect77" transform="matrix(0.98179228,-0.18995768,0,1,-32.808334,75.670834)">
	</g>
	<g id="Page-1" transform="matrix(0.15556735,0,0,0.15556735,0.012819,0.01298552)">
		<g id="cathaypacific-en-green">
			<path id="Fill-4" class="st0" d="M4,0.5c-20,103.7,53.5,300.2,186.4,385.8h0c15.2,9.5,23.4,12.3,23.4,12.3
				c1.9,0.8,0.6,2.2-0.4,2.8L42,511.1c-0.5,0.4-1.9,1.4-1.4,2.5c0.4,0.8,2.2,0.3,2.6,0.2c137.6-48.3,237.4-88.1,298.4-117.1
				c61.9-29.4,82.7-46.2,80.4-54.5c-2.1-7.9-25.1-4.5-44-6.2c-17.2-1.6-39.3-4.7-65.8-13.9C213.1,287,124.9,242.3,4,0.5z
				 M968.1,242.5L857,475.3c-16.6,31.9-35,32.5-35,32.5l-1.7,1.8h76.1l-1.9-1.8c0,0-21.2-4.2-7.7-32.5l19.9-41.1h95.2l19.3,41.1
				c13.4,28.3-7.7,32.5-7.7,32.5l-1.7,1.8h104.7l-1.8-1.8c0,0-19.3-0.1-34.9-32.5L968.1,242.5z M1768.6,242.5l-111,232.8
				c-16.6,31.9-34.9,32.5-34.9,32.5l-1.7,1.8h76l-1.7-1.8c0,0-21.3-4.2-7.8-32.5l19.9-41.1h95.2l19.3,41.1
				c13.5,28.3-7.7,32.5-7.7,32.5l-1.7,1.8h104.7l-1.7-1.8c0,0-19.3-0.1-34.9-32.5L1768.6,242.5z M721.9,251.3
				c-92.2,0-150.1,56.9-150.1,133.3c0,61.5,47.8,129.3,146.3,129.3c37.2,0,80.6-14.8,80.6-14.8l19.9-68.2l-2.2,1.4
				c0,0-32.3,53.2-92.4,53.2c-54.7,0-92.4-35.9-92.4-101.3c0-65.4,36.7-108.2,94.4-108.2c59.9,0,81.4,46.6,81.4,46.6l1.4,1.2v-55
				C808.8,268.8,773,251.3,721.9,251.3z M1082.1,252.4l-0.1,50.6l1.8-1.3c0,0,13.6-21.9,43.5-21.9h42.7v195.6
				c0,30-16.9,32.6-16.9,32.6l-1.8,1.7h90.9l-1.7-1.7c0,0-17-2.6-17-32.6l0.2-195.6h41.7c30,0,44.4,21.9,44.4,21.9l1.7,1.3l0.1-50.6
				c0,0-4.2,2.9-34.2,2.9h-161C1086.4,255.3,1082.1,252.4,1082.1,252.4L1082.1,252.4z M1521.1,255.2l1.7,1.7c0,0,17,2.2,17,32.2
				c0,30,0.1,73.1,0.1,73.1h-125v-73.1c0-30,17.1-32.1,17.1-32.1l1.7-1.7h-90.8l1.8,1.7c0,0,16.9,2,16.9,32.1v186.3
				c0,30-16.9,32.6-16.9,32.6l-1.8,1.7h90.8l-1.7-1.7c0,0-17.1-2.6-17.1-32.6v-88.2h125v88.2c0,30-17,32.6-17,32.6l-1.7,1.7h90.9
				l-1.7-1.7c0,0-17-2.6-17-32.6c0-30-0.1-156.4-0.1-186.3c0-30,16.9-32.2,16.9-32.2l1.8-1.7L1521.1,255.2z M1857.9,255.3l1.7,1.7
				c0,0,15.2,2.5,35,32.5c8.3,12.7,50.8,72.1,73.7,106.8v79.1c0,30-17,32.6-17,32.6l-1.7,1.7h90.8l-1.7-1.7c0,0-16.9-2.6-16.9-32.6
				c0-12.7-0.1-44.5-0.1-79.1c22.9-34.7,65.5-93.9,73.8-106.6c19.7-29.9,42.3-32.6,42.3-32.6l1.8-1.7h-79.7l1.7,1.7
				c0,0,22.5,6.3,5.5,32.6c-8.3,12.8-33.3,48.7-56.1,83.3c-22.9-34.6-47.5-70.7-55.8-83.5c-16.9-26.4,5.6-32.5,5.6-32.5l1.7-1.7
				H1857.9z M956.5,330l35.8,82.6h-75L956.5,330z M1757,330l35.8,82.6h-75L1757,330z"/>
			<path id="Fill-6" class="st0" d="M2493.6,412.6l39.2-82.6l35.8,82.6H2493.6z M2656.2,475.3l-111.8-232.8l-111,232.8
				c-16.7,31.9-34.9,32.5-34.9,32.5l-1.7,1.8h76l-1.6-1.8c0,0-21.3-4.2-7.9-32.5l20-41.1h95.1l19.4,41.1
				c13.5,28.3-7.8,32.5-7.8,32.5l-1.7,1.8h104.7l-1.8-1.8C2691.2,507.8,2671.9,507.7,2656.2,475.3z"/>
			<path id="Fill-8" class="st0" d="M3398.8,256.9l1.7-1.7h-90.9l1.7,1.7c0,0,17,2.6,17,32.5v186.3c0,30-17,32.5-17,32.5l-1.7,1.8
				h90.9l-1.7-1.8c0,0-17-2.5-17-32.5V289.4C3381.8,259.5,3398.8,256.9,3398.8,256.9"/>
			<path id="Fill-10" class="st0" d="M2832.4,485.5c-54.6,0-92.3-35.9-92.3-101.3c0-65.4,36.6-108.2,94.4-108.2
				c59.8,0,81.4,46.6,81.4,46.6l1.4,1.2v-55.1c0,0-35.9-17.6-86.9-17.6c-92.3,0-150.2,56.9-150.2,133.3
				c0,61.5,47.8,129.3,146.4,129.3c37.2,0,80.6-14.8,80.6-14.8l19.9-68.2l-2.2,1.4C2924.9,432.3,2892.5,485.5,2832.4,485.5"/>
			<path id="Fill-12" class="st0" d="M3098,255.2l1.6,1.8c0,0,17,2.5,17,32.5v186.3c0,30-17,32.5-17,32.5l-1.6,1.8h90.8l-1.8-1.8
				c0,0-16.9-2.5-16.9-32.5v-0.1v-90.1h53.6c29.9,0,32.4,13.1,32.4,13.1l1.8,1.8v-54.7l-1.8,1.8c0,0-2.5,13.1-32.4,13.1h-53.6v-81.4
				h64.5c30,0,42.4,17.2,42.4,17.2l1.8,1.4v-45.5c0,0-4.3,2.9-34.3,2.9L3098,255.2z"/>
			<path id="Fill-14" class="st0" d="M3049.1,256.9l1.7-1.7h-90.9l1.8,1.7c0,0,17,2.6,17,32.5v186.3c0,30-17,32.5-17,32.5l-1.8,1.8
				h90.9l-1.7-1.8c0,0-17.1-2.5-17.1-32.5V289.4C3032,259.5,3049.1,256.9,3049.1,256.9"/>
			<path id="Fill-16" class="st0" d="M3670.9,432.3c0,0-32.2,53.2-92.5,53.2c-54.6,0-92.4-35.9-92.4-101.3
				c0-65.4,36.7-108.2,94.4-108.2c59.9,0,81.4,46.6,81.4,46.6l1.5,1.2v-55.1c0,0-36-17.6-87-17.6c-92.2,0-150.2,56.9-150.2,133.3
				c0,61.5,47.8,129.3,146.4,129.3c37.2,0,80.5-14.8,80.5-14.8l20-68.2L3670.9,432.3z"/>
			<path id="Fill-18" class="st0" d="M2300.7,289.4v-9.8h11.9c14.6,0,29.8,0,38.9,3c24,7.1,36.1,25.4,36.1,54.2
				c0,23.5-15,58.5-56.3,58.5c-11.9,0-24.4-4.7-30.6-7.6L2300.7,289.4z M2349,419.7c56.1,0,89.5-42.5,89.5-83.5
				c0-22.7-8.4-63.1-65.1-77.4c-12.7-3.2-26.7-3.4-45.2-3.4l-99.7-0.1l1.7,1.7c0,0,17,2.6,17,32.5v186.3c0,30-17,32.5-17,32.5
				l-1.7,1.8h90.8l-1.7-1.8c0,0-16.9-2.5-16.9-32.5v-64.9C2308.6,414.3,2324.6,419.7,2349,419.7L2349,419.7z"/>
		</g>
	</g>
</g>
</svg>
