<?xml version="1.0" encoding="utf-8"?>
<!-- Generator: Adobe Illustrator 14.0.0, SVG Export Plug-In  -->
<!DOCTYPE svg PUBLIC "-//W3C//DTD SVG 1.1//EN" "http://www.w3.org/Graphics/SVG/1.1/DTD/svg11.dtd" [
	<!ENTITY ns_flows "http://ns.adobe.com/Flows/1.0/">
]>
<svg version="1.1"
	 xmlns="http://www.w3.org/2000/svg" xmlns:xlink="http://www.w3.org/1999/xlink" xmlns:a="http://ns.adobe.com/AdobeSVGViewerExtensions/3.0/"
	 x="0px" y="0px" width="224px" height="52px" viewBox="-0.851 -0.591 224 52" enable-background="new -0.851 -0.591 224 52"
	 xml:space="preserve">
<defs>
</defs>
<g>
	<g>
		<g>
			<polygon fill="#006A43" points="0.32,28.379 9.797,28.379 9.797,17.917 20.133,17.917 20.133,11.63 9.797,11.63 9.797,7.085 
				23.246,7.085 23.246,0.43 0.32,0.43 			"/>
			<path fill="#006A43" d="M53.325,12.931c0.743-1.235,1.115-2.658,1.115-4.269c0-2.471-1.011-4.46-3.031-5.969
				C49.388,1.185,46.55,0.43,42.896,0.43H26.335v27.949h9.732V17.691h3.069l4.631,10.688h10.789l-5.737-12.183
				C51.08,15.254,52.582,14.166,53.325,12.931z M43.174,11.037c-0.743,0.45-1.727,0.676-2.95,0.676h-4.158V6.368h4.483
				c2.493,0,3.74,0.894,3.74,2.682C44.29,9.924,43.918,10.586,43.174,11.037z"/>
			<path fill="#006A43" d="M72.58,0c-4.77,0-8.498,1.362-11.184,4.085c-2.687,2.724-4.03,6.173-4.03,10.351
				c0,4.368,1.405,7.856,4.216,10.463c2.811,2.608,6.445,3.911,10.905,3.911c4.428,0,8.044-1.337,10.847-4.013
				c2.803-2.675,4.205-6.231,4.205-10.668c0-4.286-1.39-7.712-4.169-10.279C80.589,1.284,76.993,0,72.58,0z M75.983,20.568
				c-0.72,1.263-1.901,1.894-3.542,1.894c-3.066,0-4.599-2.601-4.599-7.801c0-5.542,1.595-8.313,4.785-8.313
				c2.958,0,4.437,2.43,4.437,7.29C77.063,16.995,76.703,19.306,75.983,20.568z"/>
			<polygon fill="#006A43" points="109.545,14.865 99.633,0.62 90.435,0.62 90.435,28.569 98.332,28.569 98.327,12.902 
				109.621,28.569 117.542,28.569 117.542,0.62 109.57,0.62 			"/>
			<polygon fill="#006A43" points="121.52,7.125 128.093,7.125 128.093,28.379 137.314,28.379 137.314,7.125 143.888,7.125 
				143.888,0.43 121.52,0.43 			"/>
			<rect x="146.651" y="0.43" fill="#006A43" width="9.732" height="27.949"/>
			<polygon fill="#006A43" points="161.911,28.379 185.766,28.379 185.766,21.705 171.458,21.705 171.458,17.138 183.025,17.138 
				183.025,10.934 171.458,10.934 171.458,6.88 185.766,6.88 185.766,0.43 161.911,0.43 			"/>
			<path fill="#006A43" d="M212.105,16.196c2.261-0.942,3.763-2.03,4.506-3.266s1.115-2.658,1.115-4.269
				c0-2.471-1.011-4.46-3.031-5.969s-4.858-2.263-8.513-2.263h-16.562v27.949h9.732V17.691h3.069l4.631,10.688h10.789
				L212.105,16.196z M206.461,11.037c-0.743,0.45-1.727,0.676-2.949,0.676h-4.158V6.368h4.483c2.492,0,3.739,0.894,3.739,2.682
				C207.576,9.924,207.204,10.586,206.461,11.037z"/>
		</g>
	</g>
</g>
<path d="M9.741,50.308h-2.11l-0.875-2.607H2.543l-0.858,2.607H0l3.635-10.952h2.431L9.741,50.308z M6.227,46.12L4.63,41.233
	L3.033,46.12H6.227z"/>
<path d="M34.771,50.308h-1.974V39.356h1.974V50.308z"/>
<path d="M67.456,50.308H65.37l-1.701-4.501h-2.776v4.501h-1.974V39.356h4.75c1.321,0,2.292,0.298,2.913,0.895
	s0.931,1.368,0.931,2.314c0,1.407-0.658,2.375-1.974,2.905L67.456,50.308z M60.892,44.226h2.456c0.711,0,1.241-0.149,1.588-0.449
	s0.522-0.712,0.522-1.235c0-0.481-0.171-0.871-0.514-1.168s-0.821-0.445-1.437-0.445h-2.616V44.226z"/>
<path d="M97.958,50.308h-6.74V39.356h2.078v9.163h4.662V50.308z"/>
<path d="M123.125,50.308h-1.975V39.356h1.975V50.308z"/>
<path d="M155.545,50.308h-1.918l-4.156-6.997c-0.064-0.106-0.169-0.28-0.313-0.521c-0.063-0.106-0.163-0.275-0.297-0.505v8.023
	h-1.589V39.356h2.183l3.836,6.451c0.032,0.053,0.265,0.446,0.698,1.179v-7.63h1.557V50.308z"/>
<path d="M186.81,50.308h-7.117V39.356h7.045v1.629h-5.07v2.969h4.076v1.588h-4.076v3.065h5.143V50.308z"/>
<path d="M209.104,47.668l1.917-0.409c0.23,1.086,1.112,1.629,2.648,1.629c0.7,0,1.239-0.14,1.616-0.418
	c0.377-0.277,0.565-0.623,0.565-1.034c0-0.3-0.085-0.577-0.256-0.831c-0.172-0.254-0.538-0.453-1.1-0.598l-2.095-0.546
	c-0.717-0.187-1.246-0.399-1.588-0.638c-0.343-0.238-0.617-0.573-0.823-1.007s-0.309-0.896-0.309-1.388
	c0-0.979,0.364-1.765,1.092-2.355c0.727-0.591,1.657-0.887,2.792-0.887c0.941,0,1.782,0.206,2.523,0.618
	c0.74,0.412,1.213,0.995,1.416,1.749l-1.878,0.465c-0.288-0.828-0.963-1.243-2.021-1.243c-0.615,0-1.085,0.128-1.408,0.385
	c-0.324,0.257-0.485,0.583-0.485,0.979c0,0.626,0.508,1.064,1.524,1.315l1.861,0.466c1.129,0.283,1.886,0.702,2.271,1.256
	c0.386,0.554,0.578,1.164,0.578,1.833c0,1.075-0.405,1.922-1.216,2.54c-0.811,0.617-1.86,0.927-3.149,0.927
	c-1.086,0-2.036-0.228-2.853-0.683C209.913,49.34,209.371,48.631,209.104,47.668z"/>
<path fill="#006A43" d="M220.266,27.611l-0.219-0.05c-0.137-0.029-0.265-0.063-0.265-0.218c0-0.148,0.175-0.217,0.313-0.217
	c0.154,0,0.325,0.093,0.356,0.242l0.167-0.042c-0.078-0.222-0.274-0.336-0.519-0.336c-0.253,0-0.495,0.114-0.496,0.377
	c0,0.097,0.042,0.189,0.119,0.253c0.076,0.066,0.166,0.088,0.265,0.109l0.24,0.057c0.128,0.03,0.248,0.085,0.248,0.225
	c0,0.065-0.033,0.134-0.088,0.175c-0.067,0.049-0.174,0.067-0.263,0.067c-0.203,0-0.371-0.088-0.431-0.277l-0.164,0.033
	c0.098,0.266,0.293,0.39,0.591,0.39c0.132,0,0.274-0.022,0.381-0.099c0.107-0.076,0.164-0.188,0.164-0.311
	c0-0.108-0.044-0.202-0.137-0.272C220.456,27.657,220.361,27.631,220.266,27.611z"/>
<polygon fill="#006A43" points="222.073,27.012 221.643,28.107 221.203,27.012 220.933,27.011 220.931,28.379 221.083,28.379 
	221.085,27.184 221.094,27.184 221.564,28.379 221.688,28.379 222.148,27.185 222.158,27.185 222.158,28.38 222.341,28.38 
	222.342,27.012 "/>
</svg>
