<?xml version="1.0" encoding="UTF-8"?>
<svg width="600" height="145" version="1.1" xmlns="http://www.w3.org/2000/svg">
 <path d="m127.54 65.67c-2.7337-1.4334-22.366-6.5136-38.29-9.2592-5.3049-1.0285-10.684-1.6254-16.083-1.785 9.605 0.39307 17.194 8.2898 17.2 17.907 0 0.3842-0.0325 0.75953-0.0562 1.1408-0.21279 5.2606-0.81569 10.5-1.8087 15.672l46.275-10.991c0.0414-0.41375 0.0621-0.83342 0.0621-1.256-3e-3 -4.9089-2.8519-9.3685-7.2998-11.428z" fill="#005eb8"/>
 <path d="m90.44 72.48v16.405l-2.116 0.50242 2.116-16.908" fill="#014fb7"/>
 <path d="m72.43 90.47c-0.6295 0-1.256-0.0355-1.8826-0.10048-5.0182-0.25416-10.016-0.84819-14.954-1.7791l10.985 46.246c0.41375 0.0414 0.83341 0.0621 1.256 0.0621 4.9118 0 9.3774-2.8549 11.434-7.3175 1.4334-2.7308 6.4989-22.325 9.2474-38.237 0.993-5.1719 1.5988-10.409 1.8087-15.672-0.597 9.4454-8.4317 16.798-17.895 16.798z" fill="#0077c8"/>
 <path d="m72.45 90.51h-16.408l-0.50242-2.116 16.911 2.116" fill="#0067c7"/>
 <path d="m54.48 72.53v-0.065c0-0.31622 0.0295-0.62653 0.0473-0.9398 0.1921-5.3315 0.795-10.639 1.8087-15.876l-46.275 10.994c-0.0414 0.4167-0.0621 0.83341-0.0621 1.256 0 4.9118 2.8549 9.3774 7.3175 11.434 2.7337 1.4334 22.366 6.5107 38.287 9.2562 4.9384 0.93094 9.933 1.525 14.954 1.7791-9.135-0.95754-16.074-8.6533-16.077-17.839z" fill="#00a3e0"/>
 <path d="m54.4 72.51v-16.405l2.116-0.50241-2.116 16.908" fill="#0195df"/>
 <path d="m78.27 10.16c-0.4167-0.0414-0.83341-0.0621-1.256-0.0621-4.9118 0-9.3774 2.8549-11.434 7.3175-1.4334 2.7337-6.4989 22.325-9.2444 38.237-1.0137 5.2369-1.6196 10.545-1.8087 15.876 0.5231-9.4986 8.3755-16.934 17.886-16.94 0.25712 0 0.4965 0.0296 0.74475 0.0384 5.4054 0.15664 10.79 0.75362 16.098 1.7821z" fill="#71c5e8"/>
 <path d="m72.68 54.45h-0.25711c-9.9478 0-18.019 8.0563-18.034 18.004v0.0591c0 9.8532 7.9233 17.874 17.777 17.992h0.25712c9.9478 0 18.019-8.0563 18.034-18.004v-0.0591c3e-3 -9.8532-7.9234-17.874-17.777-17.992z" fill="#082c88"/>
 <path d="m72.36 82.61c-3.4726-0.0887-6.6378-2.0215-8.3046-5.0685-20.927-1.5516-43.544-4.8084-43.804-4.8084-0.39011 0-0.51719-0.39011-0.51719-0.65017-0.0236-0.33693 0.23052-0.6295 0.56743-0.6561 0.0207-3e-3 0.0414-3e-3 0.065 0l42.504 0.91026c-0.1064-4.6784 3.0115-8.8188 7.5391-10.007l1.4304-17.419c-0.0207-0.33692 0.23643-0.6295 0.57334-0.65019 0.0236-3e-3 0.0502-3e-3 0.0739 0 0.33691-0.0207 0.62949 0.23643 0.65018 0.57335 3e-3 0.0236 3e-3 0.0502 0 0.0739l1.5516 17.419c4.4685 1.2501 7.5184 5.3699 7.4091 10.007l42.389-0.91026c0.33987-0.0177 0.62949 0.23938 0.65018 0.57925v0.068c0.0325 0.32214-0.19801 0.60881-0.51719 0.65019-0.25712 0-23.008 3.1209-43.802 4.6783-1.6461 3.1652-4.8941 5.166-8.4583 5.2103z" fill="#fff"/>
 <path d="m543.8 104.86v-63.857h20.274c3.1386 0 5.9196 0.15369 8.343 0.46105 2.4234 0.30735 4.6931 0.84819 6.818 1.6166 2.122 0.77135 3.8715 1.785 5.2487 3.044 1.3742 1.259 2.453 2.8756 3.2302 4.8527s1.1674 4.2882 1.1674 6.9333c0 4.1848-0.65905 7.548-1.9742 10.09-1.3151 2.5416-3.6942 4.5188-7.1313 5.9314l10.226 30.928h-16.999l-7.6248-26.498-5.1571 0.0562v26.442zm16.414-36.706h4.2173c3.3484 0 5.7098-0.74475 7.087-2.2343 1.3742-1.4895 2.0628-3.7356 2.0628-6.7412 0-2.9524-0.62063-5.1424-1.8619-6.5668-1.2412-1.4245-3.3868-2.1367-6.4368-2.1367h-5.0685zm-35.534-27.274v43.414c0 6.9481-1.7082 12.206-5.1276 15.77-3.4194 3.5642-9.073 5.3463-16.964 5.3463-4.0488 0-7.5037-0.4699-10.364-1.4097-2.8608-0.93981-5.1335-2.3406-6.821-4.2084-1.6875-1.8648-2.9051-4.0577-3.6528-6.5816-0.74771-2.5209-1.123-5.494-1.123-8.9164v-23.625l-0.0207-19.789h16.568v46.925c0 0.90138 0.0207 1.655 0.065 2.2579 0.0443 0.60585 0.16845 1.2738 0.37533 2.0067 0.20392 0.73294 0.49945 1.3181 0.8807 1.7555 0.38124 0.43741 0.91616 0.80977 1.6048 1.1201 0.6886 0.30736 1.5191 0.464 2.4855 0.464 0.96936 0 1.8028-0.14777 2.5091-0.44331 0.70337-0.29554 1.2472-0.66791 1.6284-1.1201 0.38125-0.44921 0.68269-1.0344 0.90139-1.7555s0.3576-1.3949 0.41671-2.0274c0.0591-0.62948 0.0887-1.3831 0.0887-2.2579v-46.925zm-85.44 64.52c-4.0488 0-7.5037-0.46991-10.364-1.4097-2.8608-0.93982-5.1335-2.3406-6.821-4.2085-1.6875-1.8648-2.9051-4.0577-3.6528-6.5816-0.74771-2.5209-1.123-5.494-1.123-8.9164v-23.625c0-3.4489 0.37533-6.4279 1.123-8.937 0.74771-2.5091 1.9653-4.6902 3.6528-6.5432s3.9602-3.242 6.821-4.17c2.8608-0.92798 6.3156-1.389 10.364-1.389 7.8908 0 13.547 1.7703 16.964 5.3078 3.4164 3.5376 5.1276 8.7834 5.1276 15.731v23.625c0 6.9481-1.7082 12.206-5.1276 15.77-3.4194 3.5642-9.073 5.3463-16.964 5.3463zm-2.4884-10.462c0.6886 0.30736 1.5191 0.464 2.4855 0.464 0.96936 0 1.8028-0.14777 2.5091-0.44331 0.70337-0.29555 1.2472-0.66791 1.6284-1.1201 0.38125-0.44922 0.68269-1.0344 0.90139-1.7555s0.3576-1.3949 0.41671-2.0274c0.0591-0.62949 0.0887-1.3831 0.0887-2.2579v-30.689c0-0.84819-0.0295-1.59-0.0887-2.2195-0.0591-0.62948-0.19801-1.3004-0.41671-2.0067-0.2187-0.70633-0.52014-1.2797-0.90139-1.7171-0.38124-0.4374-0.92503-0.80386-1.6284-1.0994-0.70338-0.29554-1.5398-0.44331-2.5091-0.44331s-1.7969 0.14777-2.4855 0.44331-1.2265 0.65609-1.6048 1.0817c-0.38125 0.42558-0.67678 1.0048-0.8807 1.7378-0.20688 0.73293-0.331 1.3949-0.37533 1.989-0.0443 0.59108-0.065 1.3388-0.065 2.2402v30.689c0 0.90139 0.0207 1.655 0.065 2.2579 0.0443 0.60586 0.16845 1.2738 0.37533 2.0067 0.20392 0.73294 0.49945 1.3181 0.8807 1.7555 0.38124 0.43444 0.91616 0.8068 1.6048 1.1142zm-34.915-54.102h-46.341v13.595l15.664 0.01773v50.339h15.339v-50.339l15.339-0.01773zm-110.96 63.904v-63.815h13.01l17.194 30.638v-30.638h15.33v63.818h-12.504l-17.245-33.026v33.026h-15.785zm-41.1 0.66c-4.0489 0-7.5037-0.46991-10.364-1.4097-2.8608-0.93982-5.1335-2.3406-6.821-4.2085-1.6875-1.8648-2.9051-4.0577-3.6528-6.5816-0.74771-2.5209-1.123-5.494-1.123-8.9164v-23.625c0-3.4489 0.37533-6.4279 1.123-8.937 0.74771-2.5091 1.9653-4.6902 3.6528-6.5432s3.9602-3.242 6.821-4.17c2.8608-0.92503 6.3156-1.389 10.364-1.389 7.8908 0 13.547 1.7703 16.964 5.3078 3.4164 3.5376 5.1276 8.7834 5.1276 15.731v23.625c0 6.9481-1.7082 12.206-5.1276 15.77-3.4194 3.5642-9.073 5.3463-16.964 5.3463zm-2.4884-10.462c0.68861 0.30736 1.5191 0.464 2.4855 0.464 0.96936 0 1.8028-0.14777 2.5091-0.44331 0.70338-0.29555 1.2472-0.66791 1.6284-1.1201 0.38124-0.44922 0.68269-1.0344 0.90138-1.7555 0.2187-0.72111 0.3576-1.3949 0.41671-2.0274 0.0591-0.62949 0.0887-1.3831 0.0887-2.2579v-30.689c0-0.84819-0.0296-1.59-0.0887-2.2195-0.0591-0.62948-0.19801-1.3004-0.41671-2.0067-0.21869-0.70633-0.52014-1.2797-0.90138-1.7171-0.38125-0.4374-0.92503-0.80386-1.6284-1.0994s-1.5398-0.44331-2.5091-0.44331-1.7969 0.14777-2.4855 0.44331-1.2265 0.65609-1.6048 1.0817c-0.38124 0.42558-0.67678 1.0048-0.8807 1.7378-0.20688 0.73293-0.33101 1.3949-0.37533 1.989-0.0443 0.59108-0.065 1.3388-0.065 2.2402v30.689c0 0.90139 0.0207 1.655 0.065 2.2579 0.0443 0.60586 0.16845 1.2738 0.37533 2.0067 0.20392 0.73294 0.49946 1.3181 0.8807 1.7555 0.38124 0.43444 0.91616 0.8068 1.6048 1.1142zm-59.942 10.462c-4.0784 0-7.5539-0.4965-10.429-1.4866-2.8756-0.99005-5.1423-2.45-6.8003-4.3799-1.658-1.9298-2.8549-4.1552-3.5878-6.6791-0.73293-2.5209-1.0994-5.4822-1.0994-8.8779v-22.812c0-3.4755 0.36647-6.49 1.0994-9.0523 0.73293-2.5594 1.9298-4.7995 3.5878-6.7176 1.658-1.918 3.9159-3.3573 6.7767-4.3237 2.8608-0.96641 6.3452-1.4481 10.45-1.4481 3.9306 0 7.282 0.43739 10.054 1.3122 2.7721 0.87479 4.9443 2.1604 6.5136 3.8597s2.6982 3.6292 3.3898 5.7896c0.68861 2.1604 1.0344 4.6695 1.0344 7.5273v5.6359h-15.752v-6.4457c0-1.0048-0.0148-1.7614-0.0443-2.2786-0.0296-0.51423-0.13299-1.1762-0.30736-1.989-0.17732-0.80977-0.43444-1.4215-0.77135-1.8323s-0.85706-0.77726-1.5634-1.0994c-0.70338-0.32213-1.5545-0.48172-2.5534-0.48172-0.99892 0-1.8471 0.15959-2.5534 0.48172-0.70338 0.32214-1.2383 0.70929-1.6048 1.1585-0.36647 0.4492-0.65905 1.0669-0.8807 1.853-0.2187 0.78614-0.35169 1.4984-0.39602 2.1426-0.0443 0.64427-0.065 1.4422-0.065 2.3938v29.84c0 2.5741 0.38124 4.5365 1.1437 5.8871 0.76248 1.3506 2.2136 2.0274 4.3562 2.0274 0.96936 0 1.7969-0.15959 2.4855-0.48172 0.68861-0.32214 1.2088-0.70043 1.5634-1.1378 0.35169-0.4374 0.62359-1.0551 0.81273-1.853s0.30145-1.4925 0.331-2.0835c0.0296-0.59108 0.0443-1.3772 0.0443-2.3554v-6.7176h15.755v5.5206c0 2.2904-0.20687 4.3621-0.61471 6.2152-0.4108 1.853-1.1083 3.5967-2.0894 5.231-0.98414 1.6343-2.2609 3.0056-3.8272 4.1109-1.5693 1.1083-3.573 1.9742-6.0083 2.6066-2.4352 0.62358-5.2517 0.93981-8.4494 0.93981z" fill="#003082"/>
</svg>
