<?xml version="1.0" encoding="utf-8"?>
<!-- Generator: Adobe Illustrator 25.4.1, SVG Export Plug-In . SVG Version: 6.00 Build 0)  -->
<svg version="1.1" id="Layer_1" xmlns="http://www.w3.org/2000/svg" xmlns:xlink="http://www.w3.org/1999/xlink" x="0px" y="0px"
	 viewBox="0 0 923.1 260.5" style="enable-background:new 0 0 923.1 260.5;" xml:space="preserve">
<style type="text/css">
	.st0{fill:#505967;}
	.st1{fill:#5C0632;}
	.st2{fill:#747F8A;}
</style>
<path class="st0" d="M169.4,231.3c-2,0.1-3.9,0.3-5.9,0.3c-2.2,0-4.4-0.2-6.6-0.3l6.5-15.7L169.4,231.3z M176.6,249.1
	c1.1-0.1,2.9-0.4,4.7-0.4c1.8,0,4,0.3,5,0.4c-2.9-6.2-7.1-15.8-9.5-21.4c-2.3-5.3-6.1-14.3-9.2-23c-0.7,0.2-1.4,0.3-2,0.3
	c-0.8,0-1.4-0.1-2.1-0.3c-1.5,5.2-5.2,13.5-11.7,27.9l-7.4,16.4c0.9-0.1,1.8-0.4,2.9-0.4c1,0,2.2,0.2,3.1,0.4
	c1-3.6,3.1-8.9,5.1-13.8c2.5-0.2,5.1-0.2,7.7-0.3c2.7,0,5.4,0.1,8.2,0.3l2.7,6.8L176.6,249.1z M191.9,220.1c0,10.9,0,21.4-0.7,29
	c1.4-0.1,3.2-0.4,4.6-0.4c1.5,0,3,0.3,4.5,0.4c-0.5-5.2-0.6-12-0.6-21.5c0-6.4,0-17.5,0.7-22.2c-1.5,0.2-3.1,0.4-4.5,0.4
	c-1,0-3.3-0.3-4.5-0.4C191.9,211.5,191.9,216.1,191.9,220.1 M229.8,227.4c5.8-1.1,11.1-4.7,11.1-11.8c0-2.7-1-5.3-2.9-7.1
	c-2.7-2.6-5.9-3.1-10-3.1c-1.5,0-8.9,0.3-10.5,0.3c-3.3,0-4.9-0.2-6.4-0.3c0.4,8.2,0.4,9.1,0.4,17.5c0,12.3-0.1,13.7-0.6,26.3
	c1.4-0.2,2.9-0.4,4.4-0.4c1.6,0,3,0.2,4.3,0.4c0-1.7-0.3-9.9-0.3-11.7v-9h1.5c3.4,4.8,7.4,10.5,10.6,15.5c1,1.5,2.4,3.8,3.3,5.3
	c1.9-0.3,2.7-0.4,5.2-0.4c2.3,0,3.9,0.2,5.7,0.4c-4-5-5.7-7.3-10.8-14.3c-1-1.3-2.4-3.4-3.3-4.8L229.8,227.4z M219.3,208.8
	c1-0.1,3.3-0.3,4.5-0.3c2.1,0,4.2,0.3,5.9,1.6c2.2,1.7,2.7,4,2.7,6.6c0,4.1-2.4,8.8-8.7,8.8c-1.7,0-3.2-0.1-4.4-0.2V208.8z
	 M263,234.2c-3-8.9-7.1-21.3-9.1-28.8c-1.6,0.3-3,0.4-4.5,0.4c-1.5,0-3.7-0.2-5-0.4c2.3,5.9,4.4,11.9,6.6,17.8
	c2.9,8.3,4.8,14,7.1,21l1.6,4.8c0.9-0.2,1.9-0.4,2.6-0.4c0.7,0,1.3,0.1,2.4,0.4c1-3.3,2.2-7.4,3.1-10c2.5-7.3,2.8-8.3,6.1-17.3
	l1.9-5.3c0.7,2,1.9,5.3,2.6,7.3c0.7,2,4,11.7,4.7,13.9c1,2.9,1.3,3.7,3.6,11.4c0.6-0.1,1.8-0.4,2.7-0.4c0.9,0,1.6,0.2,2.5,0.4
	c2.4-7.6,2.7-8.3,6.2-18.6c3.5-9.9,5.7-15.6,9.5-25.2c-1.9,0.5-3.9,0.5-5.8,0c-2.3,8.3-3.4,12.3-5.3,17.8c-3,8.9-3.4,9.9-5.2,14.8
	c-2.1-5.5-4-11.1-5.9-16.6c-1-3.1-4.9-15.8-5-15.9c-0.9,0.2-1.5,0.4-2.8,0.4c-1.1,0-2-0.2-2.8-0.4c-1.9,7.8-8.7,26.5-9.3,28.2
	l-1.6,4.1L263,234.2z M327.3,231.3c-2,0.1-3.9,0.3-5.9,0.3c-2.2,0-4.4-0.2-6.6-0.3l6.5-15.7L327.3,231.3z M334.5,249.1
	c1.2-0.1,2.9-0.4,4.7-0.4c1.8,0,4,0.3,5,0.4c-2.9-6.2-7.1-15.8-9.5-21.4c-2.3-5.3-6.1-14.3-9.2-23c-0.7,0.2-1.3,0.3-2,0.3
	c-0.7,0-1.4-0.1-2.1-0.3c-1.5,5.2-5.2,13.5-11.7,27.9l-7.4,16.4c0.9-0.1,1.8-0.4,2.9-0.4c1,0,2.2,0.2,3.1,0.4
	c1-3.6,3.1-8.9,5.1-13.8c2.5-0.2,5.1-0.2,7.6-0.3c2.7,0,5.4,0.1,8.2,0.3l2.7,6.8L334.5,249.1z M361.3,232c0-0.6,0.4-1.3,0.8-2
	c2.7-4.6,5.2-9.4,8-14c1-1.5,5.6-8.9,6.6-10.6c-0.7,0.3-1.4,0.4-2.7,0.4c-1.2,0-2.5-0.1-3.7-0.4c-4.6,10.1-5.6,12.2-11,21.5
	c-5.4-9.5-7.8-14.5-11.2-21.5c-1.7,0.3-3.5,0.4-5.2,0.4c-1.4,0-2.9-0.1-5.2-0.4c3.3,5.5,8.7,14.3,12,20l3.8,6.5
	c0,4-0.2,12.3-0.4,17.3c1.2-0.1,3-0.4,4.3-0.4c1.5,0,2.9,0.2,4.4,0.4c-0.3-5.9-0.5-9.4-0.5-14.7L361.3,232z M380.4,239.5
	c-0.3,3.1-0.4,3.9-1.5,7.2c2.3,1.1,6.4,3.3,11.9,3.3c11.7,0,16.2-7.5,16.2-14c0-1.8-0.4-5.6-3.1-8.4c-1.8-2-3.8-2.7-8.7-4.7
	c-5.6-2.2-8.9-3.4-8.9-8.1c0-3.8,2.5-6.9,7.5-6.9c4,0,7.4,1.9,8.4,5.5h0.9c0.6-2.4,0.7-2.9,2-6.1c-3.1-1.4-5.9-2.6-10.6-2.6
	c-11.5,0-14.9,7.1-14.9,12.7c0,5.3,1.9,8.6,8,11.3c1.8,0.8,4.8,1.9,6.6,2.7c1.2,0.5,5.2,2.3,5.2,7.3c0,4.6-3.3,8-8.4,8
	c-3.8,0-7-1-9.9-7.3H380.4z"/>
<path class="st1" d="M26.2,121.7c0-48.2,25.8-61.2,45.3-61.2c31.4,0,44.9,26,44.9,53.7c0,15.9-1.9,30.8-9.8,42.8
	c-7.8,12-20.8,19.3-35,19.3C36.3,176.4,26.2,142.8,26.2,121.7 M121.5,220.2c5.7-4,14.7-9,21.2-11.9l-43.2-26.8
	c26.6-9.4,43.2-33.1,43.2-65.4c0-45.9-35-65.4-70.8-65.4C33.3,50.8,0,72.2,0,120.8c0,10.3,2.3,29.8,18.4,46.1
	c16.6,16.8,36.3,19.3,53,19.3c2.1,0,4.2,0,6.3-0.2L121.5,220.2z M231.9,130.1c-5.9,0.4-11.7,0.8-17.6,0.8c-6.7,0-13.2-0.6-19.9-0.8
	l19.5-47L231.9,130.1z M253.5,183.5c3.4-0.2,8.8-1.1,14.1-1.1c5.4,0,12,1,14.9,1.1c-8.6-18.6-21.2-47.4-28.5-64.1
	c-6.9-16.1-18.4-42.8-27.5-69c-2.1,0.6-4,1-6.1,1c-2.3,0-4.2-0.4-6.3-1c-4.6,15.7-15.7,40.6-35,83.8l-22.2,49.3
	c2.7-0.4,5.4-1.1,8.6-1.1c3.1,0,6.7,0.8,9.2,1.1c3.1-10.9,9.2-26.8,15.3-41.5c7.6-0.4,15.3-0.8,22.9-0.8c8.2,0,16.3,0.4,24.5,0.8
	l8,20.3L253.5,183.5z M338.4,86.5c0-7.3,0.2-14.5,0.4-21.4c13.2,0,26.8,0.2,38.1,1.3c-0.6-3.1-1-4.8-1-6.9c0-1.5,0.4-4,1-7.3
	c-18.4,1-35.2,1.1-51.1,1.1c-14.7,0-36-0.2-51.1-1.1c0.6,2.3,1,4.8,1,7.1c0,2.3-0.4,4.8-1,7.1c9.8-0.9,28.1-1.3,29.8-1.3h9.6
	c0.2,7.5,0.4,14.2,0.4,21.2l0.2,53.4c0,14.5-1.1,29.3-1.9,43.8c6.9-0.8,9.8-1.1,13-1.1c2.3,0,8.4,0.6,14,1.1
	c-0.6-5.3-1.3-11.7-1.3-26.2L338.4,86.5z M444.8,130.1c-5.9,0.4-11.7,0.8-17.6,0.8c-6.7,0-13.2-0.6-19.9-0.8l19.5-47L444.8,130.1z
	 M466.5,183.5c3.4-0.2,8.8-1.1,14.2-1.1c5.4,0,12,1,14.9,1.1c-8.6-18.6-21.2-47.4-28.5-64.1c-6.9-16.1-18.4-42.8-27.5-69
	c-2.1,0.6-4,1-6.1,1c-2.3,0-4.2-0.4-6.3-1c-4.6,15.7-15.7,40.6-35,83.8l-22.2,49.3c2.7-0.4,5.4-1.1,8.6-1.1c3.1,0,6.7,0.8,9.2,1.1
	c3.1-10.9,9.2-26.8,15.3-41.5c7.6-0.4,15.3-0.8,23-0.8c8.2,0,16.3,0.4,24.5,0.8l8,20.3L466.5,183.5z M572.6,118.5
	c17.4-3.3,33.3-14.2,33.3-35.4c0-8-3.1-15.9-8.8-21.4c-8.2-7.8-17.6-9.4-30-9.4c-4.4,0-26.6,1-31.6,1c-9.8,0-14.7-0.6-19.1-1
	c1.3,24.7,1.3,27.3,1.3,52.4c0,36.9-0.2,41.1-1.7,78.8c4.2-0.6,8.8-1.1,13.2-1.1c4.8,0,9,0.8,12.8,1.1c0-5-0.8-29.6-0.8-35.2v-27.2
	h4.6c10.3,14.5,22.2,31.4,31.9,46.5c2.9,4.4,7.1,11.5,9.9,15.9c5.7-0.8,8-1.1,15.5-1.1c6.9,0,11.7,0.6,17,1.1
	c-12-15.1-17.2-21.8-32.3-43c-2.9-4-7.1-10.3-9.9-14.3L572.6,118.5z M541.2,62.6c2.9-0.2,9.9-0.9,13.6-0.9c6.3,0,12.6,0.9,17.8,4.8
	c6.7,5,8,11.9,8,19.9c0,12.4-7.1,26.4-26.2,26.4c-5,0-9.6-0.4-13.2-0.6L541.2,62.6z"/>
<path class="st2" d="M858.5,118.8c0,1.2-17.3,2.4-42,3.4c-4.4-2.5-7.7-5-10.1-7.1C836.3,116.2,858.5,117.5,858.5,118.8 M840.7,77.1
	c0,1-14.5,2-35.3,2.8c3-1.7,6-3.5,9.3-5.2C830.4,75.4,840.7,76.3,840.7,77.1 M686.1,166.9c-9.6,0.1-18,0.2-24.6,0.2
	c-9.5,0-17.1-2.9-17.1-6.5c0-3.6,7.7-6.5,17.1-6.5c8.4,0,19.7,0.1,32.8,0.3c-5,7.3-7.4,11.6-7.7,11.9
	C686.5,166.4,686.3,166.6,686.1,166.9 M691.3,175.6c3.1,3.8,6.5,7.3,10.3,10.6c0,0,1.5,2.2,6.2,0.3c4.7-1.9,8.8-4.6,13.3-10.6
	c13.2,0.2,27.2,0.5,41,0.8c1.1,1.7,3.4,5.1,6.3,9.3c-38.4,1-80.2,1.6-101.5,1.6c-8.9,0-16.1-2.8-16.1-6.1c0-3.4,7.2-6.1,16.1-6.1
	c6.5,0,14.9,0,24.5,0.2C691.3,175.5,691.3,175.6,691.3,175.6 M676.4,207.7c-7.9,0-14.3-2.4-14.3-5.4s6.4-5.4,14.3-5.4
	c20.9,0,63.7,0.6,100.4,1.7c1.8,2.5,3.5,5.1,5.2,7.4C744.3,207,698.3,207.7,676.4,207.7 M798.3,225.1c-30.8,1.4-83.8,2.3-105.8,2.3
	c-6.2,0-11.2-1.9-11.2-4.3c0-2.4,5-4.3,11.2-4.3c21.1,0,70.5,0.8,101.7,2.1C795.6,222.4,797,223.8,798.3,225.1 M717.9,236.7
	c18.2,0,73.5,1.4,73.5,3c0,1.7-55.4,3-73.5,3c-3.5,0-6.4-1.4-6.4-3C711.5,238,714.4,236.7,717.9,236.7 M718.1,124.8
	c-22.9,0.4-43.4,0.6-56.6,0.6c-9.5,0-17.1-2.9-17.1-6.5c0-3.6,7.7-6.5,17.1-6.5c15.3,0,40.5,0.3,67.8,0.8
	C725.5,116.9,721.8,120.8,718.1,124.8 M830.4,95.6c13.4,0.7,21.8,1.5,21.8,2.4c0,0.9-10.2,1.8-26,2.6
	C829.6,98,830.3,95.7,830.4,95.6 M666.8,104.1c-8.9,0-16.1-2.7-16.1-6.1c0-3.4,7.2-6.1,16.1-6.1c18.3,0,51.4,0.4,84.6,1.2
	c-3.9,3.3-7.8,6.7-11.6,10.2C710.7,103.7,682.9,104.1,666.8,104.1 M766.1,81.2c-34,0.9-70.8,1.4-89.7,1.4c-7.9,0-14.3-2.4-14.3-5.4
	c0-3,6.4-5.5,14.3-5.5c20.8,0,63.6,0.7,100.2,1.7c-1.8,1.3-3.7,2.7-5.5,4C769.4,78.7,767.8,79.9,766.1,81.2 M692.5,60.5
	c-6.2,0-11.2-1.9-11.2-4.3c0-2.4,5-4.3,11.2-4.3c23.4,0,81.7,1,111.3,2.5c-1.9,1.2-3.8,2.5-5.7,3.8
	C767.2,59.6,714.5,60.5,692.5,60.5 M659.8,146.3c-9.6,0-17.5-3-17.5-6.7c0-3.7,7.8-6.6,17.5-6.6c12.1,0,30.2,0.2,50.6,0.5
	c-3.5,4.1-6.8,8.2-10,12.5C684.1,146.2,669.8,146.3,659.8,146.3 M711.5,39.7c0-1.7,2.9-3,6.4-3c18.2,0,73.5,1.4,73.5,3
	c0,1.7-55.3,3-73.5,3C714.4,42.7,711.5,41.3,711.5,39.7"/>
<path class="st1" d="M860.3,134.8c0.1,3.3,0.1,6.6-0.1,9.8c-32.2,1.3-62.7,3.2-62.7,5.4c0,2.1,29.9,4.1,61.7,5.3
	c-0.6,3.6-1.3,7.2-2.2,10.8c-31.4,1.3-60.5,3.2-60.5,5.3c0,2,27.2,3.9,57.3,5.2c-1.4,3.8-2.9,7.5-4.7,11.1
	c-25.9,1.2-47.2,2.9-47.2,4.7c0,1.7,18.7,3.3,42.2,4.5c-1.3,2.1-2.7,4.2-4.1,6.2c-1.6,2.2-3.2,4.4-5,6.4
	c-14.7,1.1-24.8,2.4-24.8,3.7c0,1.2,7.2,2.3,18.4,3.2c-6.5,6.4-13.8,12-21.7,16.5c0,0-10-8.6-18.2-18.6
	c-7.3-8.9-22.9-32.5-26.6-37.8c-3.7-5.3-6.1-6.8-10.4-5.3c-5.7,2-12.4,3.1-14.5,3.1c-2.1,0-3.2-0.8,0.3-2.2c3.4-1.4,17-7.8,23.7-21
	c7.5-14.9,0.9-35.5,0.9-35.5c-2.5,11-8.3,15.1-8.3,15.1c1.9-10.2-0.2-19.5-5.2-26l-2.8,12.9c0,0-1.8-0.1-6.1,3.6
	c-4.4,3.7-5.5,9-5.5,9c3.4,1.4,7.5-2.1,7.5-2.1c-5.3,19.7-12.8,35.7-18.3,44.2c-5.5,8.5-10,11.7-15.6,13.9c-4.7,1.9-6.2-0.3-6.2-0.3
	c-3.7-3.2-7.2-6.7-10.3-10.5c0,0-0.3-0.4,0.6-0.4c2.3,0,6.3-3.8,7.2-5.4c1-1.8,0.9-3.3,0.4-3.3c-0.5-0.1-1.4,1.4-5.7,4.1
	c-4.3,2.7-6.3,0.8-7.8-0.7c-1.1-1.2,0-2.7,0.7-3.7c0.7-0.8,23.7-43.7,84.5-88.8c79.7-59,130.6-75,133.6-76.1c1.9-0.8,5.1-1.8,5.8-1
	c0.8,0.8,1.2,1.5,1.1,2.5c-0.1,1-0.6,1.4-4.3,3.1c-30.6,13.5-66.3,36-86.6,49c-25,12.2-48.8,29.5-49.7,29.9
	c-1.9,1.2-0.5,2.9,0.7,2.2c42.2-28,91.6-47.1,146.2-62.8c2.6-0.7,4-0.7,4.5-0.2c0.5,0.6,0.7,1.4,0.8,2.2c0.1,1-0.8,1.5-3,2.4
	c-58.7,21.8-101.9,42-129.7,60.8c0,0-2.9,1.7-2.9,3.7c0,0.8,1.5,0.9,1.5,0.9c13.9,0.2,32.5,1.1,41.4,1.6c0,0-1.3,4.5-9.7,8.1
	c-6.5,2.8-12.6,2.3-18.6,2.4c-1.3,0-2.5,1.3-1.4,2.8C801.1,109.5,813.9,130.1,860.3,134.8 M435.1,242.2h-7.9c0,0-1.1-4.8,1.8-6.7
	c2.9-1.9,6.1-3.3,6.1-3.3V242.2z M472.4,224.1c0,0-4.8,2.7-7.8,5.4c-3,2.7,0.6,3.7,0.6,3.7v9h-22.8v-31.5c0,0-8.3,7.6-9.1,8.7
	c-0.8,1.1,2,2.1,2,2.1l-0.5,3c0,0-3.3,1.7-7.3,4.4c-4,2.7-7,6.1-7,8.5c0,2.4-1,11.7-1,11.7h52.9V224.1z M425.2,212.6
	c2.6,0,4.4-1,4.4-3.1c0-2.1-1.2-3.5-4.4-3.5c-2.9,0-3.6,1.2-3.6,3.5C421.5,211.8,422.5,212.6,425.2,212.6 M434.9,212.6
	c2.6,0,4.4-1,4.4-3.1c0-2.1-1.2-3.5-4.4-3.5c-2.9,0-3.6,1.2-3.6,3.5C431.3,211.8,432.2,212.6,434.9,212.6 M449.6,251.8
	c-2.8,0-3.6,1.2-3.6,3.5c0,2.3,1,3.1,3.6,3.1c2.6,0,4.4-1,4.4-3.1C454.1,253.2,452.9,251.8,449.6,251.8 M459.7,251.8
	c-2.8,0-3.6,1.2-3.6,3.5c0,2.3,1,3.1,3.6,3.1c2.6,0,4.5-1,4.5-3.1C464.2,253.2,463,251.8,459.7,251.8 M573.7,212
	c2.6,0,4.5-1,4.5-3.1c0-2.1-1.2-3.5-4.5-3.5c-2.8,0-3.6,1.2-3.6,3.5C570.1,211.2,571.1,212,573.7,212 M583.8,212
	c2.6,0,4.4-1,4.4-3.1c0-2.1-1.2-3.5-4.4-3.5c-2.9,0-3.6,1.2-3.6,3.5C580.2,211.2,581.1,212,583.8,212 M611.7,212.8
	c-1.4,1.2-1,2.7,0.8,2.5v33.8h7.5v-42.1C620,207.1,613.1,211.6,611.7,212.8 M581.6,231.8h-4.9c0-2.7,4.8-4.1,4.8-4.1L581.6,231.8z
	 M549.6,237.4c0,1.2-0.1,3.2-0.1,4.8h-42.3v-7.4c1.1-2.9,3-3.2,5.9-3.2H544C550.7,231.6,549.6,235.1,549.6,237.4 M599.1,215.3v26.9
	h-10.1v-24.4c0,0-2.1,0.8-4.9,2c-2.8,1.3-12.9,5.4-12.9,10.9v6.4h10.3v5h-24.5c0-1.2,0-2.9,0-5.5c0-8-6.8-12.4-12.9-12.4h-28.3
	c-5,0-7.4,1.2-8.7,2.6v-20.7c0,0-4.4,3.1-7.7,5.6c-3.2,2.5,0,4.1,0,4.1v26.3h-9.3l-0.2-22.6c0,0-6.5,4.7-8.3,6.2
	c-1.8,1.4-0.8,2.7,1.2,2.7c0,0-0.4,16.7-0.4,20.6c0,4-3.3,8.5-10.1,6.4c0,0-2.2,0.4-0.4,2.1c1.8,1.6,4,2.9,6.4,2.9
	c2.4,0,11.3-1.7,11.3-11.4h116.8V207c0,0-6.9,4.5-8.3,5.8C596.9,214,597.3,215.5,599.1,215.3"/>
</svg>
