<?xml version="1.0" encoding="utf-8"?>
<!-- Generator: Adobe Illustrator 12.0.1, SVG Export Plug-In  -->
<!DOCTYPE svg PUBLIC "-//W3C//DTD SVG 1.1//EN" "http://www.w3.org/Graphics/SVG/1.1/DTD/svg11.dtd" [
	<!ENTITY ns_flows "http://ns.adobe.com/Flows/1.0/">
	<!ENTITY ns_svg "http://www.w3.org/2000/svg">
	<!ENTITY ns_xlink "http://www.w3.org/1999/xlink">
]>
<svg  version="1.1" xmlns="&ns_svg;" xmlns:xlink="&ns_xlink;" xmlns:a="http://ns.adobe.com/AdobeSVGViewerExtensions/3.0/"
	 width="126" height="126" viewBox="0 0 126 126" enable-background="new 0 0 126 126" xml:space="preserve">
<defs>
</defs>
<polygon fill="#B32317" points="0,0 0,61.546 46.728,46.399 55.396,74.53 56.213,43.292 96.282,30.208 105.604,58.012 
	106.423,27.428 126,20.643 126,0 "/>
<polygon fill="#B32317" points="79.109,56.049 77.965,89.904 40.512,102.171 30.862,72.567 0,82.769 0,126 126,126 126,74.693 
	88.76,86.797 "/>
<polygon fill="#FFFFFF" points="105.604,58.012 96.282,30.208 56.213,43.292 55.396,74.53 46.728,46.399 0,61.546 0,82.769 
	30.862,72.567 40.512,102.171 77.965,89.904 79.109,56.049 88.76,86.797 126,74.693 126,20.643 106.423,27.428 "/>
</svg>
