<?xml version="1.0" encoding="utf-8"?>
<!-- Generator: Adobe Illustrator 25.4.1, SVG Export Plug-In . SVG Version: 6.00 Build 0)  -->
<svg version="1.1" id="Layer_1" xmlns="http://www.w3.org/2000/svg" xmlns:xlink="http://www.w3.org/1999/xlink" x="0px" y="0px"
	 viewBox="0 0 412.8 100.1" style="enable-background:new 0 0 412.8 100.1;" xml:space="preserve">
<style type="text/css">
	.st0{fill-rule:evenodd;clip-rule:evenodd;fill:#231F20;}
	.st1{fill-rule:evenodd;clip-rule:evenodd;fill:#EEEFEF;}
	.st2{fill-rule:evenodd;clip-rule:evenodd;fill:#B5D5F0;}
	.st3{fill-rule:evenodd;clip-rule:evenodd;fill:#6CADDE;}
	.st4{fill-rule:evenodd;clip-rule:evenodd;fill:#D6A6CC;}
	.st5{fill-rule:evenodd;clip-rule:evenodd;fill:#DAE7A2;}
	.st6{fill-rule:evenodd;clip-rule:evenodd;fill:#91268F;}
	.st7{fill-rule:evenodd;clip-rule:evenodd;fill:#8DC63F;}
</style>
<desc>Created with Sketch.</desc>
<g id="Page-1">
	<g id="Desktop-HD" transform="translate(-165.000000, -12.000000)">
		<g id="Header_x2F_Brand_x5F_header_x2F_Account">
			<g id="Header_x2F_Brand_x5F_header">
				<g id="Logo" transform="translate(165.000000, 12.000000)">
					<g id="Group" transform="translate(0.000000, 6.054054)">
						<path id="Fill-10" class="st0" d="M276,49.1c-2.1-2.1-5.4-3.7-8.6-3.7c-2.3,0-5.1,1.3-5.1,3.9c0,6.8,23.2,1.5,23.2,17.3
							c0,10.9-10.9,14.1-20.3,14.1c-6.5,0-13-1.6-17.6-6.1l8-8c2.6,2.6,6.3,4.4,10.3,4.4c3.1,0,6.3-1.1,6.3-3.4
							c0-7.4-23.2-1.5-23.2-17.4c0-10,9.2-14.4,18.5-14.4c5.8,0,12.2,1.4,16.3,5.6L276,49.1z"/>
						<polygon id="Fill-5" class="st0" points="108,79.5 121.7,79.5 121.7,13 108,13 						"/>
						<path id="Fill-7" class="st0" d="M153.9,47.3c-6.8,0-10.9,4.4-10.9,10.8c0,6.4,4.1,10.8,10.9,10.8c6.8,0,10.9-4.4,10.9-10.8
							C164.8,51.7,160.7,47.3,153.9,47.3L153.9,47.3z M177.3,79.5h-12.5v-5.6h-0.2c-2.1,3.1-7.3,6.7-13.5,6.7
							c-13.1,0-21.7-9.2-21.7-22.1c0-11.9,7.6-22.8,20.1-22.8c5.6,0,10.9,1.5,14,5.6h0.2v-4.6h13.6V79.5z"/>
						<path id="Fill-8" class="st0" d="M188,36.7h13.6v6.9h0.2c2.9-5.2,6.7-7.9,12.7-7.9c1.5,0,3.3,0.1,4.5,0.4v12.1
							c-1.9-0.5-3.8-0.9-5.8-0.9c-10.3,0-11.6,5.8-11.6,14.4v17.9H188V36.7z"/>
						<path id="Combined-Shape" class="st0" d="M240,36.7v42.8h-13.6V36.7H240z M240,13v13.4h-13.6V13H240z"/>
						<path id="Fill-3" class="st0" d="M76,69c6.8,0,10.9-4.4,10.9-10.8c0-6.4-4.1-10.8-10.9-10.8c-6.8,0-10.9,4.4-10.9,10.8
							C65.1,64.6,69.2,69,76,69 M76,35.7c13.6,0,24.5,8.8,24.5,22.5S89.6,80.6,76,80.6c-13.6,0-24.5-8.8-24.5-22.5
							S62.4,35.7,76,35.7"/>
						<polygon id="Fill-2" class="st0" points="0,36.7 14.7,36.7 25.9,65.8 26,65.8 36.4,36.7 50.1,36.7 32.7,79.5 18.2,79.5 						
							"/>
					</g>
					<g id="Estrella" transform="translate(99.282984, 0.000000)">
						<polygon id="Fill-12" class="st1" points="255.8,14.3 270,14.3 270,0 255.8,0 						"/>
						<polygon id="Fill-13" class="st2" points="255.8,28.5 270,28.5 270,14.3 255.8,14.3 						"/>
						<polygon id="Fill-14" class="st3" points="255.8,42.8 270,42.8 270,28.5 255.8,28.5 						"/>
						<polygon id="Fill-15" class="st2" points="241.5,42.8 255.8,42.8 255.8,28.5 241.5,28.5 						"/>
						<polygon id="Fill-16" class="st4" points="241.5,71.3 255.8,71.3 255.8,57.1 241.5,57.1 						"/>
						<polygon id="Fill-17" class="st2" points="270,42.8 284.3,42.8 284.3,28.5 270,28.5 						"/>
						<polygon id="Fill-18" class="st5" points="270,71.3 284.3,71.3 284.3,57.1 270,57.1 						"/>
						<polygon id="Fill-19" class="st0" points="255.8,57.1 270,57.1 270,42.8 255.8,42.8 						"/>
						<polygon id="Fill-20" class="st6" points="255.8,71.3 270,71.3 270,57.1 255.8,57.1 						"/>
						<polygon id="Fill-21" class="st4" points="255.8,85.6 270,85.6 270,71.3 255.8,71.3 						"/>
						<polygon id="Fill-22" class="st1" points="255.8,99.8 270,99.8 270,85.6 255.8,85.6 						"/>
						<polygon id="Fill-23" class="st1" points="213,57.1 227.3,57.1 227.3,42.8 213,42.8 						"/>
						<polygon id="Fill-24" class="st4" points="227.3,57.1 241.5,57.1 241.5,42.8 227.3,42.8 						"/>
						<polygon id="Fill-25" class="st6" points="241.5,57.1 255.8,57.1 255.8,42.8 241.5,42.8 						"/>
						<polygon id="Fill-26" class="st7" points="270,57.1 284.3,57.1 284.3,42.8 270,42.8 						"/>
						<polygon id="Fill-27" class="st5" points="284.3,57.1 298.6,57.1 298.6,42.8 284.3,42.8 						"/>
						<polygon id="Fill-28" class="st1" points="298.6,57.1 312.8,57.1 312.8,42.8 298.6,42.8 						"/>
					</g>
				</g>
			</g>
		</g>
	</g>
</g>
</svg>
